<svg xmlns="http://www.w3.org/2000/svg" viewBox="0 0 500 500"><ellipse cx="250" cy="370.13" rx="215.29" ry="122.75" fill="#fafafa"/><path d="M107.25 53.61l-11.72 6.77a13.73 13.73 0 00.1-1.55v-3.4c0-6-4.24-8.49-9.48-5.47a18.49 18.49 0 00-5.64 5.43c-.86-7.59-6.82-10.39-14.06-6.24-7.82 4.51-14.17 15.5-14.17 24.54v5.08a13.45 13.45 0 001.2 5.88l-9.73 5.62a11.63 11.63 0 00-5.26 9.1c0 3.35 2.36 4.71 5.26 3l63.5-36.66a11.62 11.62 0 005.25-9.1c0-3.31-2.35-4.67-5.25-3zm75.39-7.04l-8.59 5a8.74 8.74 0 00.08-1.14v-2.52c0-4.43-3.11-6.23-6.95-4a13.35 13.35 0 00-4.14 4c-.62-5.57-5-7.65-10.3-4.58-5.74 3.31-10.39 11.37-10.39 18V65a9.85 9.85 0 00.88 4.32l-7.13 4.12a8.49 8.49 0 00-3.86 6.67c0 2.45 1.73 3.45 3.86 2.22l46.54-26.87a8.53 8.53 0 003.86-6.67c0-2.45-1.73-3.45-3.86-2.22z" fill="#ebebeb"/><g fill="#ba68c8"><path d="M449.55 384.08a.74.74 0 01-.21 0l-6.2-1.6a.53.53 0 01-.37-.34c0-.16-5.44-16.28 6-38.13 8.2-15.6 21-25.73 29.2-23.07a9.1 9.1 0 016.37 6.48 10.55 10.55 0 01-3.33 9.84c-.64.63-1.64 1.48-2.91 2.56-7.78 6.64-26.1 22.23-28.1 43.78a.52.52 0 01-.22.39.92.92 0 01-.23.09zm-5.85-2.57l5.3 1.37c2.31-21.66 20.6-37.21 28.45-43.89 1.25-1.06 2.24-1.9 2.85-2.5a9.5 9.5 0 003-8.84 8 8 0 00-5.67-5.71c-7.69-2.5-19.95 7.41-27.91 22.55-10.41 19.89-6.65 34.86-6.02 37.02z"/><path d="M446 383.17a.54.54 0 01-.54-.53c-.46-25.16 17-49.4 28.68-54.4a.54.54 0 01.42 1c-11.59 4.93-28.47 29.53-28 53.39a.55.55 0 01-.56.54z"/><path d="M443.36 382.49a.65.65 0 01-.24 0l-4.19-1.27a.53.53 0 01-.36-.35c-.08-.24-7.48-24.28-2-56.67 2.78-16.49 12.39-32.59 22.86-38.26 5-2.73 10-3.07 14.71-1 2.67 1.16 4.34 2.87 5 5.09 1.73 6.12-4.63 15.25-11.36 24.9-4.72 6.76-9.59 13.75-11.81 19.92a.54.54 0 01-1-.37c2.27-6.3 7.19-13.34 11.94-20.16 6.59-9.44 12.81-18.36 11.21-24-.54-1.92-2-3.36-4.37-4.4-4.4-1.92-9-1.6-13.77 1-10.2 5.53-19.59 21.3-22.32 37.5-5.1 30.3 1.12 53.19 1.91 55.9l3.92 1.18a.53.53 0 01.36.67.52.52 0 01-.49.32z"/><path d="M442.32 367.17a.55.55 0 01-.58-.49c-3.16-38.93 18.56-70.1 25-75.45a.54.54 0 01.69.82c-6.34 5.28-27.73 36-24.6 74.54a.54.54 0 01-.51.58z"/></g><g fill="#e0e0e0"><path d="M93.23 465.37l-81.38-46.99 213.63-123.34 81.39 46.99L93.23 465.37z"/><ellipse cx="385.14" cy="406.71" rx="84.2" ry="48.62"/></g><path d="M241.81 188.69a2.25 2.25 0 00-2.31.18l-188.79 109c-2 1.12-3.53 4.14-3.53 6.74v120.93a3.17 3.17 0 001.19 2.84L96.21 456a2.26 2.26 0 002.31-.19l188.79-109a8.45 8.45 0 003.53-6.74V219.14a3.12 3.12 0 00-1.23-2.85z" fill="#ba68c8"/><path d="M241.81 188.69a2.25 2.25 0 00-2.31.18l-188.79 109c-2 1.12-3.53 4.14-3.53 6.74v120.93a3.17 3.17 0 001.19 2.84L96.21 456a2.26 2.26 0 002.31-.19l188.79-109a8.45 8.45 0 003.53-6.74V219.14a3.12 3.12 0 00-1.23-2.85z" fill="#fff" opacity=".7"/><path d="M287.31 346.82l-188.79 109c-2 1.13-3.53-.06-3.53-2.66V332.21a8.45 8.45 0 013.53-6.74l188.79-109c1.95-1.13 3.53.06 3.53 2.66v120.95a8.45 8.45 0 01-3.53 6.74z" fill="#ba68c8"/><path d="M287.31 346.82l-188.79 109c-2 1.13-3.53-.06-3.53-2.66V332.21a8.45 8.45 0 013.53-6.74l188.79-109c1.95-1.13 3.53.06 3.53 2.66v120.95a8.45 8.45 0 01-3.53 6.74z" fill="#fff" opacity=".5"/><path d="M113.17 332.19c-1.39-.81-3.31-.7-5.43.53a17 17 0 00-7.68 13.3c0 2.44.86 4.16 2.25 5l3.85 2.22c1.39.8 3.31.69 5.42-.53a17 17 0 007.68-13.3c0-2.45-.86-4.17-2.25-5z" fill="#ba68c8"/><path d="M113.17 332.19c-1.39-.81-3.31-.7-5.43.53a17 17 0 00-7.68 13.3c0 2.44.86 4.16 2.25 5l3.85 2.22c1.39.8 3.31.69 5.42-.53a17 17 0 007.68-13.3c0-2.45-.86-4.17-2.25-5z" opacity=".15"/><path d="M107.74 346l-7-4a13.29 13.29 0 00-.69 4c0 2.44.86 4.16 2.25 5l3.85 2.22c1.39.8 3.31.69 5.42-.53a13.51 13.51 0 003.16-2.62z" opacity=".15"/><path d="M106.5 345l-5.67-3.27c-.06.15-.11.3-.16.46l5.59 3.22zm-4.9-5.2l5.62 3.24.24-.41-5.65-3.26zm-.47 10.06l5.21 3 .24-.41-5.93-3.42a4.41 4.41 0 00.48.85zm4.73.09l-5.77-3.32c0 .19 0 .39.06.57l5.47 3.16zm.08-2.55l-5.72-3.3-.06.51 5.54 3.2zm-3.07-9.87l5.65 3.26.23-.41-5.61-3.24c-.09.15-.14.28-.27.41zm1.55-2l5.67 3.28.24-.41-5.59-3.23zm3.87-3.09l5.77 3.34.24-.41-5.48-3.17zm3.29-.73a4.92 4.92 0 00-.94 0l6 3.44.24-.41zm-5.41 2.11l5.72 3.3.24-.4-5.55-3.21c-.14.1-.28.19-.41.3z" opacity=".25"/><path d="M103.9 348.23c0 4.9 3.44 6.88 7.68 4.44a17 17 0 007.68-13.3c0-4.9-3.44-6.88-7.68-4.44a17 17 0 00-7.68 13.3z" fill="#ba68c8"/><path d="M108.15 352.06c-2.34 0-2.59-2.68-2.59-3.83a15.37 15.37 0 016.85-11.86 5.44 5.44 0 012.6-.83c2.34 0 2.59 2.68 2.59 3.83a15.37 15.37 0 01-6.85 11.86 5.38 5.38 0 01-2.6.83zM115 336a5 5 0 00-2.37.77 14.86 14.86 0 00-6.63 11.46c0 1 .21 3.36 2.12 3.36a5 5 0 002.37-.77 14.86 14.86 0 006.61-11.45c.03-1.01-.17-3.37-2.1-3.37z" fill="#fff"/><path d="M281.18 235.18c-1.38-.8-3.3-.69-5.42.53a17 17 0 00-7.68 13.3c0 2.45.86 4.16 2.25 5l3.85 2.23c1.39.8 3.3.68 5.42-.54a17 17 0 007.68-13.3c0-2.45-.87-4.16-2.26-5z" fill="#ba68c8"/><path d="M281.18 235.18c-1.38-.8-3.3-.69-5.42.53a17 17 0 00-7.68 13.3c0 2.45.86 4.16 2.25 5l3.85 2.23c1.39.8 3.3.68 5.42-.54a17 17 0 007.68-13.3c0-2.45-.87-4.16-2.26-5z" opacity=".15"/><path d="M275.76 249l-7-4a13.34 13.34 0 00-.69 4c0 2.45.86 4.16 2.25 5l3.85 2.23c1.39.8 3.3.68 5.42-.54a13.42 13.42 0 003.15-2.61z" opacity=".15"/><path d="M274.52 248l-5.68-3.28-.15.46 5.59 3.23zm-4.9-5.21l5.62 3.25.23-.41-5.65-3.27c-.07.17-.13.31-.2.45zm-.48 10.07l5.22 3 .23-.41-5.93-3.43a4.75 4.75 0 00.48.86zm4.74.09l-5.77-3.33a5.42 5.42 0 00.06.58l5.47 3.16zm.08-2.55l-5.72-3.3c0 .17 0 .34-.06.51l5.54 3.2zm-3.08-9.87l5.65 3.26.24-.41-5.62-3.24zm1.56-2l5.67 3.27.24-.41-5.6-3.23c-.1.11-.21.23-.31.36zm3.87-3.09l5.77 3.33.24-.4-5.49-3.17c-.17.06-.35.14-.52.23zm3.29-.73a4.92 4.92 0 00-.94 0l5.95 3.44.24-.41zm-5.41 2.11l5.72 3.3.23-.41-5.54-3.2c-.14.09-.28.19-.41.3z" opacity=".25"/><ellipse cx="279.6" cy="246.8" rx="10.86" ry="6.27" transform="rotate(-60 279.602 246.795)" fill="#ba68c8"/><path d="M276.17 255.06c-2.34 0-2.6-2.68-2.6-3.83a15.4 15.4 0 016.86-11.87 5.36 5.36 0 012.6-.82c2.34 0 2.59 2.67 2.59 3.82a15.42 15.42 0 01-6.85 11.87 5.44 5.44 0 01-2.6.83zM283 239a5 5 0 00-2.37.76 14.88 14.88 0 00-6.61 11.46c0 1 .2 3.35 2.12 3.35a5 5 0 002.37-.76 14.88 14.88 0 006.61-11.46c.03-1-.18-3.35-2.12-3.35z" fill="#fff"/><path d="M95 449.13v4c0 2.6 1.58 3.79 3.53 2.66l188.79-109a8.45 8.45 0 003.53-6.74v-4z" fill="#ba68c8"/><path d="M261.05 262.62l-136.27 78.67c-.65.38-1.19 0-1.19-.9v-14.75a2.88 2.88 0 011.19-2.28l136.27-78.67c.65-.38 1.19 0 1.19.9v14.75a2.88 2.88 0 01-1.19 2.28z" fill="#455a64"/><path fill="#e0e0e0" d="M258.09 250.53L127.72 325.8v1.28l.02.02 130.35-75.26v-1.31zm0 8.35l-130.37 75.27v1.27l.02.03 130.35-75.26v-1.31zm-97.02 53.67l.66-.38v-2.35l-.66.38zm4.2-2.42l.66-.39v-2.35l-.66.38zm4.2-2.43l.66-.38V305l-.66.38zm4.21-2.43l.66-.38v-2.35l-.66.38zm12.6-7.27l.66-.39v-2.35l-.66.38zm-8.4 4.85l.66-.38v-2.36l-.66.39zm4.2-2.43l.66-.38v-2.35l-.66.38zm8.4-4.85l.66-.38v-2.35l-.66.38zm-50.42 29.11l.66-.38V322l-.66.38zm-8.4 4.85l.66-.38v-2.35l-.66.38zM156.87 315l.66-.38v-2.36l-.66.39zm-29.42 17l.66-.38v-2.35l-.66.38zm16.81-9.7l.66-.39v-2.35l-.66.38zm8.41-4.86l.66-.38v-2.35l-.66.38zm-4.21 2.43l.66-.38v-2.39l-.66.38zm-12.6 7.28l.66-.38v-2.36l-.66.39zM245.11 264l.66-.38v-2.32l-.66.38zm-50.42 29.11l.66-.38v-2.35l-.66.38zm46.22-26.68l.66-.39v-2.35l-.66.39zm-12.61 7.27l.66-.38V271l-.66.38zm4.2-2.42l.66-.38v-2.35l-.66.38zm25.22-16.91v2.35l.66-.38V254zm-4.21 4.78l.66-.38v-2.35l-.66.38zm-4.2 2.42l.66-.38v-2.35l-.66.38zm-12.6 7.28l.66-.38v-2.35l-.66.38zm-33.62 19.41l.66-.38v-2.35l-.66.38zm4.2-2.43l.66-.38v-2.35l-.66.38zm-8.4 4.86l.66-.38V288l-.66.39zm25.21-14.56l.66-.38v-2.35l-.66.38zm-4.2 2.43l.66-.38v-2.36l-.66.39zm-8.41 4.85l.66-.38v-2.35l-.66.38zm4.21-2.41l.66-.38v-2.35l-.66.38z"/><path d="M219.08 361.86l-52.33 30.21c-.85.49-1.55 0-1.55-1.18a3.76 3.76 0 011.55-3l52.33-30.2c.85-.5 1.55 0 1.55 1.17a3.76 3.76 0 01-1.55 3zm-61.27 38.71L105.19 431c-1.37.79-2.47 0-2.47-1.86V369.9a5.9 5.9 0 012.47-4.72l52.62-30.38c1.37-.79 2.48.05 2.48 1.86v59.19a5.91 5.91 0 01-2.48 4.72z" fill="#455a64"/><path d="M118.81 421.58c-10.77 0-17.73-8.75-17.73-22.3 0-18.73 13.19-41.59 29.42-51 4.77-2.75 9.37-4.15 13.69-4.15 10.78 0 17.74 8.76 17.74 22.3 0 18.73-13.2 41.59-29.42 51a27.67 27.67 0 01-13.7 4.15z" fill="#ba68c8"/><path d="M103.09 399.28c0 18.12 12.72 25.47 28.41 16.41s28.42-31.1 28.42-49.22-12.73-25.47-28.42-16.4-28.41 31.09-28.41 49.21z" fill="#263238"/><path d="M157.51 365.08c0-8.35-2.71-14.41-7.16-17.63-5-2.24-11.61-1.56-18.85 2.62-15.69 9.06-28.41 31.09-28.41 49.21 0 8.36 2.7 14.41 7.16 17.63 5 2.25 11.61 1.57 18.85-2.61 15.69-9.06 28.41-31.1 28.41-49.22z" fill="#37474f"/><path d="M109.78 392.64c0 12.32 8.65 17.31 19.32 11.15s19.32-21.14 19.32-33.45-8.65-17.34-19.32-11.16-19.32 21.14-19.32 33.46z" fill="#ba68c8"/><path d="M120.47 404.42c-5.43 0-8.68-4.4-8.68-11.78 0-11.66 8.22-25.89 18.31-31.72a15.73 15.73 0 017.63-2.37c5.43 0 8.68 4.41 8.68 11.79 0 11.65-8.22 25.88-18.32 31.71a15.69 15.69 0 01-7.62 2.37z" fill="#37474f"/><path d="M122.12 400c-4.39 0-7-3.56-7-9.53 0-9.42 6.64-20.92 14.8-25.64a12.71 12.71 0 016.16-1.91c4.4 0 7 3.56 7 9.52 0 9.43-6.64 20.93-14.8 25.64a12.66 12.66 0 01-6.17 1.92z" fill="#455a64"/><path d="M106.75 394.39a22.35 22.35 0 001.84 8.61 11.41 11.41 0 005.93 6 13.27 13.27 0 008.47.33 25.63 25.63 0 007.85-3.77 44.45 44.45 0 0012-12.77 48.64 48.64 0 004.09-7.84 39.1 39.1 0 002.51-8.51 41 41 0 01-5.95 16.76 46.91 46.91 0 01-5.35 7.21 39.21 39.21 0 01-6.74 6 26.39 26.39 0 01-8.18 3.82 13.61 13.61 0 01-9-.5 12 12 0 01-6.07-6.56 21.54 21.54 0 01-1.4-8.78z" fill="#455a64"/><path d="M106.28 407.52a13.73 13.73 0 004.88 4.76 12.5 12.5 0 006.52 1.58c4.55-.08 8.9-2 12.71-4.45a46.33 46.33 0 0010.19-9.18 55.8 55.8 0 004.14-5.54 59.71 59.71 0 003.49-6 49.3 49.3 0 01-7 12 44.42 44.42 0 01-10.24 9.53 31.48 31.48 0 01-6.31 3.14 19.17 19.17 0 01-7 1.24 12.57 12.57 0 01-11.39-7.11z" fill="#455a64"/><path d="M155.92 339.87c.88-.51 1.6-.1 1.6.92a3.54 3.54 0 01-1.6 2.76c-.88.5-1.59.09-1.59-.92a3.5 3.5 0 011.59-2.76zm0 54.55c.88-.5 1.6-.09 1.6.92a3.51 3.51 0 01-1.6 2.76c-.88.51-1.59.1-1.59-.92a3.53 3.53 0 011.59-2.76zm-48.53-26.53c.88-.51 1.59-.1 1.59.92a3.53 3.53 0 01-1.59 2.76c-.88.51-1.6.09-1.6-.92a3.53 3.53 0 011.6-2.76zm0 54.56c.88-.51 1.59-.1 1.59.92a3.53 3.53 0 01-1.59 2.76c-.88.5-1.6.09-1.6-.92a3.51 3.51 0 011.6-2.76z" fill="#263238"/><path d="M280.64 329.66L228 360c-1.36.79-2.47-.05-2.47-1.87V299a5.93 5.93 0 012.47-4.72l52.63-30.39c1.37-.78 2.47.05 2.47 1.87v59.19a5.9 5.9 0 01-2.46 4.71z" fill="#455a64"/><path d="M241.64 350.66c-10.77 0-17.74-8.75-17.74-22.29 0-18.73 13.2-41.59 29.42-51a27.67 27.67 0 0113.7-4.15c10.77 0 17.73 8.75 17.73 22.3 0 18.73-13.19 41.59-29.42 50.95a27.53 27.53 0 01-13.69 4.15z" fill="#ba68c8"/><path d="M225.91 328.37c0 18.12 12.73 25.46 28.42 16.4s28.41-31.09 28.41-49.21-12.74-25.47-28.41-16.41-28.42 31.1-28.42 49.22z" fill="#263238"/><path d="M280.34 294.17c0-8.36-2.71-14.41-7.16-17.63-5-2.25-11.62-1.57-18.85 2.61-15.69 9.06-28.42 31.1-28.42 49.22 0 8.35 2.71 14.41 7.16 17.63 5 2.24 11.62 1.56 18.86-2.61 15.69-9.07 28.41-31.1 28.41-49.22z" fill="#37474f"/><path d="M232.61 321.73c0 12.32 8.65 17.31 19.32 11.15s19.31-21.14 19.31-33.46-8.65-17.31-19.31-11.15-19.32 21.14-19.32 33.46z" fill="#ba68c8"/><path d="M243.3 333.51c-5.44 0-8.68-4.41-8.68-11.78 0-11.66 8.21-25.89 18.31-31.72a15.69 15.69 0 017.62-2.37c5.44 0 8.68 4.4 8.68 11.78 0 11.66-8.21 25.89-18.31 31.72a15.69 15.69 0 01-7.62 2.37z" fill="#37474f"/><path d="M245 329.11c-4.39 0-7-3.56-7-9.52 0-9.42 6.65-20.93 14.81-25.64a12.74 12.74 0 016.09-1.95c4.39 0 7 3.56 7 9.53 0 9.42-6.64 20.93-14.81 25.64a12.71 12.71 0 01-6.16 1.91z" fill="#455a64"/><path d="M229.58 323.48a22.3 22.3 0 001.84 8.6 11.43 11.43 0 005.93 6.05 13.2 13.2 0 008.47.32 25.55 25.55 0 007.84-3.76 44.31 44.31 0 0012-12.77 47.9 47.9 0 004.1-7.84 38.53 38.53 0 002.5-8.51 41 41 0 01-5.94 16.75 45.4 45.4 0 01-5.36 7.21 38.68 38.68 0 01-6.73 6 26.24 26.24 0 01-8.19 3.83 13.58 13.58 0 01-9-.51 12 12 0 01-6.07-6.55 21.6 21.6 0 01-1.39-8.82z" fill="#455a64"/><path d="M229.11 336.61a13.62 13.62 0 004.88 4.75 12.49 12.49 0 006.52 1.59c4.55-.09 8.9-2 12.71-4.45a46.12 46.12 0 0010.19-9.19 54.57 54.57 0 004.13-5.54 56.76 56.76 0 003.5-6 49 49 0 01-7 12 44.24 44.24 0 01-10.24 9.54 31.74 31.74 0 01-6.31 3.14 19.42 19.42 0 01-7 1.24 13.19 13.19 0 01-6.76-1.93 13.33 13.33 0 01-4.62-5.15z" fill="#455a64"/><path d="M278.75 269c.88-.51 1.59-.09 1.59.92a3.52 3.52 0 01-1.59 2.76c-.88.51-1.59.1-1.59-.92a3.53 3.53 0 011.59-2.76zm0 54.51c.88-.51 1.59-.1 1.59.92a3.52 3.52 0 01-1.59 2.76c-.88.51-1.59.1-1.59-.92a3.52 3.52 0 011.59-2.76zM230.21 297c.89-.51 1.6-.09 1.6.92a3.5 3.5 0 01-1.59 2.76c-.89.51-1.6.1-1.6-.92a3.53 3.53 0 011.59-2.76zm0 54.53c.89-.51 1.6-.09 1.6.92a3.52 3.52 0 01-1.59 2.76c-.89.51-1.6.1-1.6-.92a3.53 3.53 0 011.59-2.76z" fill="#263238"/><path d="M215.65 305.43a2.88 2.88 0 00-2.88.29l-41.72 24.09a9 9 0 00-4.1 7.09v39.31a2.84 2.84 0 001.2 2.64l2 1.17a2.88 2.88 0 002.88-.29l41.72-24.09a9 9 0 004.1-7.08v-39.31a2.86 2.86 0 00-1.21-2.65z" fill="#37474f"/><path d="M173.06 331l41.72-24.09c2.26-1.3 4.1-.24 4.1 2.37v39.31a9 9 0 01-4.1 7.08l-41.72 24.09c-2.26 1.24-4.06.24-4.06-2.39v-39.31a9.05 9.05 0 014.06-7.06z" fill="#455a64"/><path d="M171.81 338.06a6.3 6.3 0 012.67-4.63l41.56-24v39.13a6.34 6.34 0 01-2.67 4.63l-41.56 24z" fill="#263238"/><path d="M182.41 369.78a8.79 8.79 0 014.09-6.8l14.85-8.57c2.26-1.3 4.09-.38 4.09 2.07v2.22l-23 13.3zm-5.76-4.43l34.55-19.95v1.11l-34.55 19.94v-1.1z" fill="#455a64"/><path fill="#ba68c8" d="M211.2 315.48l-15.36 8.86v4.43l15.36-8.86v-4.43z"/><path fill="#455a64" d="M176.58 342.11l34.62-19.98v21.05l-34.55 19.95-.07-21.02z"/><path d="M198.83 340.35c0 2.45 1.72 3.44 3.84 2.22a8.51 8.51 0 003.84-6.65c0-2.45-1.72-3.45-3.84-2.22a8.48 8.48 0 00-3.84 6.65z" fill="#37474f"/><path d="M203.52 336.66a.84.84 0 00-.85.08 2.68 2.68 0 00-1.2 2.09.85.85 0 00.35.78l3.77 2.18a.84.84 0 00.85-.09 2.64 2.64 0 001.21-2.08.86.86 0 00-.36-.78z" fill="#263238"/><path d="M205.24 341c0 .77.54 1.08 1.2.69a2.64 2.64 0 001.21-2.08c0-.77-.54-1.08-1.21-.69a2.65 2.65 0 00-1.2 2.08zm-23.88 9.43c0 2.45 1.72 3.45 3.84 2.22A8.48 8.48 0 00189 346c0-2.45-1.72-3.44-3.84-2.22a8.49 8.49 0 00-3.8 6.65z" fill="#37474f"/><path d="M186.05 346.74a.84.84 0 00-.85.09 2.62 2.62 0 00-1.2 2.08.85.85 0 00.35.78l3.77 2.18a.84.84 0 00.85-.08 2.67 2.67 0 001.21-2.09.83.83 0 00-.36-.77z" fill="#263238"/><path d="M187.77 351.09c0 .77.54 1.08 1.2.7a2.67 2.67 0 001.21-2.09c0-.76-.54-1.07-1.21-.69a2.67 2.67 0 00-1.2 2.08z" fill="#37474f"/><path fill="#ba68c8" d="M179.83 292.37v16.37l1.22-.69v-16.38l-1.22.7zM96.27 456h-.06c-.74-.43-47.22-27.25-47.84-27.62a3.15 3.15 0 01-1.18-2.84V304.61a8.78 8.78 0 011.11-4.06l47.8 27.59a8.84 8.84 0 00-1.1 4.07v120.94a3.08 3.08 0 001.27 2.85z"/><path d="M96.27 456h-.06c-.74-.43-47.22-27.25-47.84-27.62a3.15 3.15 0 01-1.18-2.84V304.61a8.78 8.78 0 011.11-4.06l47.8 27.59a8.84 8.84 0 00-1.1 4.07v120.94a3.08 3.08 0 001.27 2.85z" fill="#fff" opacity=".3"/><path fill="#ba68c8" d="M63.12 309.1l12.75 7.36L269.5 204.68l-12.75-7.37L63.12 309.1z"/><path fill="#ba68c8" opacity=".5" d="M158.74 275.98l6.75 3.9 42.38-24.45-6.76-3.9-42.37 24.45z"/><path fill="#ba68c8" opacity=".5" d="M201.11 251.53v6.83l.84.48 5.92-3.41-6.76-3.9z"/><path d="M205.89 256.57l-5.65 3.26-.42.24-5.26-3.07.54-2.74a3.79 3.79 0 011.59-2.23l2.28-1.34a2.85 2.85 0 012.59 0l2.28 1.34a3.76 3.76 0 011.59 2.23z" fill="#37474f"/><path d="M201.54 254.87a2.48 2.48 0 00-1.3 2.18v2.78l-.42.24-5.26-3.07.54-2.74a3.79 3.79 0 011.59-2.23z" fill="#263238"/><path d="M199 250.7l-2.31 1.3a.8.8 0 000 1.51l2.26 1.32a2.85 2.85 0 002.59 0l2.3-1.33c.72-.41.72-1.08 0-1.5l-2.28-1.34a2.82 2.82 0 00-2.56.04z" fill="#455a64"/><path d="M199 260.53l-5.65 3.26-.35.21-5.3-3 .54-2.74a3.82 3.82 0 011.58-2.23l2.29-1.33a2.8 2.8 0 012.58 0L197 256a3.75 3.75 0 011.58 2.23z" fill="#f5f5f5"/><path d="M194.67 258.83a2.48 2.48 0 00-1.3 2.18v2.78l-.37.21-5.3-3 .54-2.74a3.82 3.82 0 011.58-2.23z" fill="#e0e0e0"/><path d="M192.1 254.66l-2.28 1.34a.81.81 0 000 1.52l2.26 1.31a2.85 2.85 0 002.59 0l2.3-1.32a.8.8 0 000-1.51l-2.29-1.34a2.82 2.82 0 00-2.58 0z" fill="#fff"/><path d="M192.15 264.5l-5.65 3.25-.41.24-5.26-3.07.54-2.73A3.79 3.79 0 01183 260l2.29-1.34a2.8 2.8 0 012.58 0l2.29 1.34a3.79 3.79 0 011.59 2.23z" fill="#f5f5f5"/><path d="M187.81 262.79a2.49 2.49 0 00-1.31 2.21v2.77l-.41.24-5.26-3.07.54-2.73A3.79 3.79 0 01183 260z" fill="#e0e0e0"/><path d="M185.24 258.62L183 260a.8.8 0 000 1.51l2.25 1.32a2.87 2.87 0 002.6 0l2.3-1.32a.8.8 0 000-1.51l-2.28-1.34a2.82 2.82 0 00-2.63-.04z" fill="#fff"/><path d="M185.29 268.46l-5.65 3.26-.42.23-5.22-3.07.54-2.73a3.8 3.8 0 011.59-2.23l2.28-1.34a2.85 2.85 0 012.59 0l2.28 1.33a3.78 3.78 0 011.59 2.24z" fill="#f5f5f5"/><path d="M180.94 266.76a2.48 2.48 0 00-1.3 2.18v2.78l-.42.23-5.22-3.07.54-2.73a3.8 3.8 0 011.59-2.23z" fill="#e0e0e0"/><path d="M178.37 262.58l-2.28 1.34a.8.8 0 000 1.51l2.26 1.32a2.85 2.85 0 002.59 0l2.3-1.32a.8.8 0 000-1.51l-2.24-1.33a2.85 2.85 0 00-2.63-.01z" fill="#fff"/><path d="M178.42 272.42l-5.65 3.26-.41.24-5.26-3.07.54-2.74a3.82 3.82 0 011.58-2.23l2.29-1.34a2.83 2.83 0 012.58 0l2.29 1.34a3.8 3.8 0 011.59 2.23z" fill="#f5f5f5"/><path d="M174.07 270.72a2.5 2.5 0 00-1.3 2.18v2.78l-.41.24-5.26-3.07.54-2.74a3.82 3.82 0 011.58-2.23z" fill="#e0e0e0"/><path d="M171.51 266.55l-2.29 1.33a.8.8 0 000 1.51l2.26 1.32a2.87 2.87 0 002.6 0l2.29-1.33a.79.79 0 000-1.5l-2.29-1.34a2.8 2.8 0 00-2.57.01z" fill="#fff"/><path d="M171.56 276.38l-5.65 3.26-.42.24-5.26-3 .54-2.77a3.79 3.79 0 011.59-2.23l2.28-1.33a2.82 2.82 0 012.59 0l2.28 1.34a3.76 3.76 0 011.59 2.23z" fill="#f5f5f5"/><path d="M167.21 274.68a2.48 2.48 0 00-1.3 2.18v2.78l-.42.24-5.26-3 .54-2.77a3.79 3.79 0 011.59-2.23z" fill="#e0e0e0"/><path d="M164.64 270.51l-2.28 1.33a.8.8 0 000 1.52l2.26 1.31a2.85 2.85 0 002.59 0l2.3-1.32a.8.8 0 000-1.51l-2.28-1.34a2.82 2.82 0 00-2.59.01z" fill="#fff"/><path fill="#ba68c8" opacity=".5" d="M98.18 310.94l6.75 3.9 28.69-16.56-6.75-3.9-28.69 16.56z"/><path fill="#ba68c8" opacity=".5" d="M126.87 294.38v6.83l.83.49 5.92-3.42-6.75-3.9z"/><path d="M131.6 299.46l-5.6 3.26-.42.24-5.26-3.07.54-2.74a3.76 3.76 0 011.59-2.23l2.28-1.34a2.85 2.85 0 012.59 0l2.28 1.34a3.73 3.73 0 011.59 2.23z" fill="#f5f5f5"/><path d="M127.25 297.76a2.48 2.48 0 00-1.3 2.18v2.78l-.42.24-5.26-3.07.54-2.74a3.76 3.76 0 011.59-2.23z" fill="#e0e0e0"/><path d="M124.68 293.58l-2.28 1.34a.8.8 0 000 1.51l2.26 1.32a2.85 2.85 0 002.59 0l2.3-1.33a.79.79 0 000-1.5l-2.28-1.34a2.85 2.85 0 00-2.59 0z" fill="#fff"/><path d="M124.73 303.42l-5.65 3.26-.41.24-5.26-3.07.54-2.74a3.82 3.82 0 011.58-2.23l2.28-1.34a2.85 2.85 0 012.59 0l2.28 1.34a3.76 3.76 0 011.59 2.23z" fill="#f5f5f5"/><path d="M120.38 301.72a2.48 2.48 0 00-1.3 2.18v2.78l-.41.24-5.26-3.07.54-2.74a3.82 3.82 0 011.58-2.23z" fill="#e0e0e0"/><path d="M117.81 297.55l-2.28 1.33a.8.8 0 000 1.51l2.26 1.32a2.85 2.85 0 002.59 0l2.3-1.33a.79.79 0 000-1.5l-2.29-1.34a2.82 2.82 0 00-2.58.01z" fill="#fff"/><path d="M117.86 307.38l-5.65 3.26-.41.24-5.26-3.07.54-2.74a3.82 3.82 0 011.58-2.23l2.29-1.33a2.8 2.8 0 012.58 0l2.29 1.34a3.79 3.79 0 011.59 2.23z" fill="#f5f5f5"/><path d="M113.52 305.68a2.49 2.49 0 00-1.31 2.18v2.78l-.41.24-5.26-3.07.54-2.74a3.82 3.82 0 011.58-2.23z" fill="#e0e0e0"/><path d="M111 301.51l-2.29 1.33a.81.81 0 000 1.52l2.26 1.31a2.87 2.87 0 002.6 0l2.3-1.32a.8.8 0 000-1.51l-2.28-1.34a2.82 2.82 0 00-2.59.01z" fill="#fff"/><path d="M111 311.35l-5.65 3.25-.42.24-5.26-3 .54-2.76a3.8 3.8 0 011.59-2.23l2.28-1.34a2.88 2.88 0 012.59 0l2.28 1.34a3.79 3.79 0 011.59 2.23z" fill="#f5f5f5"/><path d="M106.65 309.64a2.49 2.49 0 00-1.3 2.19v2.77l-.42.24-5.26-3 .54-2.76a3.8 3.8 0 011.59-2.23z" fill="#e0e0e0"/><path d="M104.08 305.47l-2.28 1.34a.8.8 0 000 1.51l2.26 1.32a2.85 2.85 0 002.59 0l2.3-1.32a.8.8 0 000-1.51l-2.29-1.34a2.82 2.82 0 00-2.58 0z" fill="#fff"/><path fill="#ba68c8" opacity=".5" d="M232.05 233.66l6.75 3.9 28.69-16.57-6.76-3.9-28.68 16.57z"/><path fill="#ba68c8" opacity=".5" d="M260.73 217.09v6.84l.84.48 5.92-3.42-6.76-3.9z"/><path d="M265.46 222.17l-5.65 3.26-.41.24-5.26-3.07.54-2.74a3.82 3.82 0 011.58-2.23l2.29-1.34a2.83 2.83 0 012.58 0l2.29 1.34a3.8 3.8 0 011.59 2.23z" fill="#f5f5f5"/><path d="M261.11 220.47a2.5 2.5 0 00-1.3 2.18v2.78l-.41.24-5.26-3.07.54-2.74a3.82 3.82 0 011.58-2.23z" fill="#e0e0e0"/><path d="M258.55 216.3l-2.29 1.33a.8.8 0 000 1.51l2.26 1.32a2.87 2.87 0 002.6 0l2.29-1.33a.79.79 0 000-1.5l-2.29-1.34a2.8 2.8 0 00-2.57.01z" fill="#fff"/><path d="M258.6 226.13l-5.6 3.26-.42.24-5.26-3.07.54-2.73a3.78 3.78 0 011.59-2.24l2.28-1.33a2.82 2.82 0 012.59 0l2.28 1.34a3.79 3.79 0 011.59 2.23z" fill="#f5f5f5"/><path d="M254.25 224.43a2.48 2.48 0 00-1.3 2.18v2.78l-.42.24-5.26-3.07.54-2.73a3.78 3.78 0 011.59-2.24z" fill="#e0e0e0"/><path d="M251.68 220.26l-2.28 1.33a.8.8 0 000 1.52l2.26 1.31a2.85 2.85 0 002.59 0l2.3-1.32a.8.8 0 000-1.51l-2.28-1.34a2.82 2.82 0 00-2.59.01z" fill="#fff"/><path d="M251.73 230.1l-5.65 3.25-.41.24-5.26-3.07.54-2.73a3.79 3.79 0 011.58-2.23l2.28-1.34a2.88 2.88 0 012.59 0l2.28 1.34a3.79 3.79 0 011.59 2.23z" fill="#f5f5f5"/><path d="M247.38 228.39a2.49 2.49 0 00-1.3 2.19v2.77l-.41.24-5.26-3.07.54-2.73a3.79 3.79 0 011.58-2.23z" fill="#e0e0e0"/><path d="M244.81 224.22l-2.28 1.34a.8.8 0 000 1.51l2.26 1.32a2.85 2.85 0 002.59 0l2.3-1.32a.8.8 0 000-1.51l-2.29-1.34a2.82 2.82 0 00-2.58 0z" fill="#fff"/><path d="M244.86 234.06l-5.65 3.26-.41.24-5.27-3 .55-2.77a3.79 3.79 0 011.58-2.23l2.29-1.34a2.83 2.83 0 012.58 0l2.29 1.33a3.78 3.78 0 011.59 2.24z" fill="#f5f5f5"/><path d="M240.51 232.36a2.5 2.5 0 00-1.3 2.18v2.78l-.41.24-5.27-3 .55-2.77a3.79 3.79 0 011.58-2.23z" fill="#e0e0e0"/><path d="M238 228.18l-2.29 1.34a.8.8 0 000 1.51l2.26 1.32a2.87 2.87 0 002.6 0l2.3-1.33a.8.8 0 000-1.51l-2.28-1.33a2.85 2.85 0 00-2.59 0z" fill="#fff"/><path fill="#e0e0e0" d="M75.87 316.46v66.25l-12.75-7.36V309.1l12.75 7.36z"/><path d="M270.21 203.46l-12.75-7.36a.93.93 0 00-.94 0L64.49 307a5.12 5.12 0 00-2.55 4.42V376l12.75 7.36 1.18-.68v-64a3.93 3.93 0 012-3.4L269.5 204.67l1.17.68v-1.08a.93.93 0 00-.46-.81z" fill="#ba68c8"/><path d="M270.21 203.46l-12.75-7.36a.93.93 0 00-.94 0L64.49 307a5.12 5.12 0 00-2.55 4.42V376l12.75 7.36 1.18-.68v-64a3.93 3.93 0 012-3.4L269.5 204.67l1.17.68v-1.08a.93.93 0 00-.46-.81z" fill="#fff" opacity=".85"/><path d="M74.69 383.39l1.18-.68v-64a3.89 3.89 0 01.53-2l-13.77-7.95a5.1 5.1 0 00-.69 2.55V376z" fill="#ba68c8"/><path d="M74.69 383.39l1.18-.68v-64a3.89 3.89 0 01.53-2l-13.77-7.95a5.1 5.1 0 00-.69 2.55V376z" fill="#fff" opacity=".5"/><path d="M269.5 204.67L77.83 315.33a3.93 3.93 0 00-2 3.4v64l-1.18.68v-64.68a5.12 5.12 0 012.55-4.42l192-110.86a.94.94 0 011.41.82v1.08z" fill="#ba68c8"/><path d="M269.5 204.67L77.83 315.33a3.93 3.93 0 00-2 3.4v64l-1.18.68v-64.68a5.12 5.12 0 012.55-4.42l192-110.86a.94.94 0 011.41.82v1.08z" fill="#fff" opacity=".3"/><path d="M75.38 316.18a5.1 5.1 0 00-.69 2.55v64.66l1.18-.68v-64a3.89 3.89 0 01.53-2z" fill="#ba68c8"/><path d="M249.15 208v-32.89a3.81 3.81 0 00-5.71-3.29L229.52 180l1.58 2.71 13.9-8.17a.63.63 0 01.66 0 .62.62 0 01.33.57V208a.79.79 0 00.46.65 2.42 2.42 0 002.22 0 .74.74 0 00.48-.65z" fill="#455a64"/><path d="M230.76 177.23a2.32 2.32 0 00-2.32-.23L98.1 252.25a2.3 2.3 0 00-1 2.13 7.29 7.29 0 003.3 5.71 2.29 2.29 0 002.36.22c.56-.35 129.7-74.9 130.28-75.21a2.3 2.3 0 001-2.15 7.27 7.27 0 00-3.28-5.72z" fill="#37474f"/><path d="M100.43 252.47a7.27 7.27 0 013.3 5.72c0 2.1-1.47 3-3.3 1.9a7.29 7.29 0 01-3.3-5.71c0-2.11 1.48-2.96 3.3-1.91z" fill="#263238"/><path d="M101.42 256.91a2.43 2.43 0 00-1.12-1.91.74.74 0 00-.8-.07L87 262.15a9.92 9.92 0 00-5 8.56v32a.79.79 0 00.46.65 2.48 2.48 0 002.22 0 .75.75 0 00.46-.65v-32a6.77 6.77 0 013.38-5.85l12.51-7.22a.77.77 0 00.39-.73z" fill="#455a64"/><path d="M298.27 287.66a1.78 1.78 0 001.28-.53l19.45-19.4a1.84 1.84 0 000-2.57 1.82 1.82 0 00-2.57 0L297 284.57a1.8 1.8 0 000 2.56 1.78 1.78 0 001.27.53zm1.28 23.34a1.81 1.81 0 00-2.56 2.56l19.4 19.41a1.82 1.82 0 002.57-2.57zm32.77-13.72h-27.44a1.81 1.81 0 000 3.62h27.44a1.81 1.81 0 000-3.62z" fill="#e0e0e0"/><path d="M211.82 124.91l4.18 11.92a3.3 3.3 0 103.12 2.19l-3.78-10.69 9.76-6.63 3.76 10.59a3.06 3.06 0 00-1.11.17 3.31 3.31 0 104.23 2l-6.28-17.67zm26.04-82.19a4.73 4.73 0 01.46-1.91 10.14 10.14 0 011.49-2.18 18.19 18.19 0 002.19-2.81 4.4 4.4 0 00.51-3.4 4.62 4.62 0 01-1.18 1.68c-1.24 1.1-3.25 1.45-4.69 2.28-2.13 1.23-3 3.1-3.61 5.65 1.92 1 3.81 2 5.72 3.08l4.48 2.41 2 1.15a4.56 4.56 0 00-1.29 1.46 3.64 3.64 0 104.93-1.49zM455.1 89.85a7.06 7.06 0 012.33-1.91 15.79 15.79 0 013.83-1.32 27.49 27.49 0 005.22-1.46 6.73 6.73 0 003.76-3.7 7.06 7.06 0 01-3 1c-2.53.22-5.32-1.2-7.84-1.5-3.76-.46-6.55 1-9.64 3.6 1.43 3 2.79 6 4.18 9l3.28 7.09 1.4 3.26a6.58 6.58 0 00-2.92.6 5.59 5.59 0 107.42 2.71z" fill="#ba68c8"/><path d="M455.1 89.85a7.06 7.06 0 012.33-1.91 15.79 15.79 0 013.83-1.32 27.49 27.49 0 005.22-1.46 6.73 6.73 0 003.76-3.7 7.06 7.06 0 01-3 1c-2.53.22-5.32-1.2-7.84-1.5-3.76-.46-6.55 1-9.64 3.6 1.43 3 2.79 6 4.18 9l3.28 7.09 1.4 3.26a6.58 6.58 0 00-2.92.6 5.59 5.59 0 107.42 2.71z" fill="#fff" opacity=".3"/><path d="M47.5 212.4a8.14 8.14 0 013-1.49 17 17 0 014.5-.44 32 32 0 006-.26 7.51 7.51 0 005-3.07 8 8 0 01-3.5.28c-2.8-.41-5.48-2.66-8.14-3.63-4-1.46-7.38-.54-11.39 1.46.79 3.61 1.49 7.26 2.24 10.89.58 2.84 1.17 5.69 1.75 8.54.06.27.7 3.9.7 3.9a7.62 7.62 0 00-3.33-.1 6.24 6.24 0 107.37 4.85z" fill="#ba68c8"/><path d="M47.5 212.4a8.14 8.14 0 013-1.49 17 17 0 014.5-.44 32 32 0 006-.26 7.51 7.51 0 005-3.07 8 8 0 01-3.5.28c-2.8-.41-5.48-2.66-8.14-3.63-4-1.46-7.38-.54-11.39 1.46.79 3.61 1.49 7.26 2.24 10.89.58 2.84 1.17 5.69 1.75 8.54.06.27.7 3.9.7 3.9a7.62 7.62 0 00-3.33-.1 6.24 6.24 0 107.37 4.85z" fill="#fff" opacity=".3"/><path d="M437.05 380.31c-.85-12.45-1.29-18.27-2.48-40.51-.1-5.7-.31-11.8-.69-17.23-1.29-18.25-3.64-22.59-5.21-28.85s-2.83-18-5.23-57.21a201.83 201.83 0 00-7.24-44.34H360c-5.77 24.6-7.42 77.88-7.24 103.24.08 12.92.22 79.72-.1 85.06a18 18 0 01-5.41 11.58c-4.63 5-7.95 7-13.76 11.31.85 2.22 13 2.14 16.47.45a128.09 128.09 0 0014.52-8.53c4.77-3.53 5.88-5.66 6-11a12.87 12.87 0 00-.05-1.76c.09-3.13 9.14-49.94 11.11-60.51 1.53-8.21-.14-24.11-.14-24.11l5.95-39.1s6.72 26 10.31 41.76c2.64 11.62 9.16 30 13.44 48.55 5 18.88 5.39 20.55 8.33 34.07 1.49 6.82 5.12 29.75 6.77 34.47 5.34 15.22 17.42 7.66 18.1-.76.4-5.63-7.06-33.89-7.25-36.58z" fill="#b16668"/><path d="M387.3 258.77l-4.3-28.2s-16.83-2-23-7.88c0 0 7.72 10.89 19.14 12.66l4.8 23.39-2.53 38.8z" fill="#9a4a4d"/><path d="M320.61 409.66c-.32 0-.83 3.47.87 5 2 1.73 7.73 4.59 15.4 3.68s11.85-3.24 14.95-5.77 7.43-6.11 10.9-6.84c3.23-.67 8.49-2.43 9.53-3.42s.95-5.41.95-5.41z" fill="#263238"/><path d="M370.49 381.31a2.35 2.35 0 011.22 1.52c.22 1.22.21 2.79.7 4.79.67 2.79 1.08 8.5.64 10.76s-7.46 4.12-10.83 5.36a42.85 42.85 0 00-11 6.75c-3.63 2.93-11.24 5.83-16.23 5.85-7.63 0-12.55-2.09-14-4.85-1.85-3.41-.35-5.36 8.45-9.32 1.67-.75 7.54-4.14 9.54-5.37a46.09 46.09 0 006-4.37 37.1 37.1 0 002.7-2.62A12.3 12.3 0 00350 387c.1-.23.17-.5.26-.74a12.33 12.33 0 00.6-2.05c.15-.73.25-1.79.94-2.22a5.87 5.87 0 013.14-.33 22.8 22.8 0 013.38.51c1.28.3 4.52.1 5.27 1.32a6.31 6.31 0 01.69 3.18v1.54c0 .22-.1.61.21.52s.63-.84.74-1.1c.25-.57.41-1.19.68-1.75A5.27 5.27 0 01367 384c1.47-1.21 2.88-1 3.31-1.37-.03.04.13-.88.18-1.32z" fill="#37474f"/><path d="M328 402.82c11 .88 14.44 7.73 14.86 12a26 26 0 01-7.85 1.56c-7.63 0-12.86-2.09-14.36-4.85-1.71-3.26-.47-5.82 7.35-8.71z" fill="#fafafa"/><path d="M344.58 403.11a.57.57 0 00.35-.12.54.54 0 00.08-.76 13 13 0 00-9.94-4 .53.53 0 00-.48.59.52.52 0 00.58.48 12 12 0 019 3.65.53.53 0 00.41.16zm4.79-2.72a.54.54 0 00.34-.12.55.55 0 00.09-.76 13 13 0 00-9.95-4 .54.54 0 00-.48.59.53.53 0 00.59.48 12 12 0 019 3.65.55.55 0 00.41.16zm4.44-3.12a.49.49 0 00.34-.12.53.53 0 00.08-.75 13 13 0 00-9.94-4 .54.54 0 00.11 1.08 12 12 0 019 3.64.55.55 0 00.41.15zm4.35-3.12a.46.46 0 00.33-.11.53.53 0 00.1-.75c-2.09-2.7-6.85-4.51-10.86-4.11a.54.54 0 00.11 1.07c3.61-.35 8.05 1.31 9.9 3.7a.53.53 0 00.42.2z" fill="#f0f0f0"/><path d="M424.49 419.37c.87 5.13 2.06 8.47 4.23 11.3s5.73 3.39 9.14 2.12 7.63-4.15 8.14-8.72.75-7.69-.57-12.39z" fill="#263238"/><path d="M437.05 380.31c1.46-.05 1.84 6.84 3.44 13.7 1.72 7.35 3.12 10.18 4.59 16.2 1.69 6.87.88 10.12-1.1 14.61s-10.17 9.58-15.11 4c-4-4.54-4.77-10-5.22-17-.47-7.24-1.71-12-2.9-17.37-1.23-5.56-2.56-10.61-1.37-11.33a48.1 48.1 0 001.48 5.54c.19.37.86 1.28.92-.2 0-.44-.23-1.42-.24-1.86a1.85 1.85 0 011.13-1.81 13.78 13.78 0 016-2c2.82-.33 5.24-.69 6.91-.06 1 .38 1.07 1.28 1.27 2.15.24 1 .33 1.68.56 1.44.47-.48-.41-5.25-.36-6.01z" fill="#37474f"/><path d="M445.93 414.21a17.56 17.56 0 01-1.52 10.9c-2 4.49-10.87 9.68-15.81 4.11-2.45-2.77-3.41-6.26-4.11-9.86 2.04-4.94 16.97-8.67 21.44-5.15z" fill="#fafafa"/><path d="M426.8 411.43l.17-.07c.06 0 6.43-3.54 13.1-2.75a.55.55 0 00.6-.48.54.54 0 00-.48-.59c-7.05-.83-13.55 2.76-13.79 2.9a.55.55 0 00-.17.75.56.56 0 00.57.24zm12.37-7.99a.52.52 0 00.41-.41.53.53 0 00-.41-.64c-6.71-1.48-13.53 2.61-13.78 2.78a.54.54 0 00-.15.75.55.55 0 00.75.14c.06 0 6.7-4 12.95-2.62a.45.45 0 00.23 0zm-.77-4.88a.53.53 0 00.41-.4.54.54 0 00-.4-.65c-7.4-1.76-13.82 2.59-14.05 2.78a.54.54 0 10.65.85c.06 0 6.26-4.21 13.15-2.58a.49.49 0 00.24 0z" fill="#f0f0f0"/><path d="M437.51 393.78a.54.54 0 00.41-.4.53.53 0 00-.39-.65c-6.95-1.76-13.88 2.74-14.13 2.93a.54.54 0 10.63.87c.06 0 6.78-4.39 13.24-2.76a.65.65 0 00.24.01z" fill="#ebebeb"/><path d="M417.83 192.17c4 15.34 5.61 19.11 7.91 53.29 2.22 33.14 2.4 38 2.73 42 .75 9.16 4.81 12.32 6 33.93 1.09 19.8 1.74 44.22 1.74 44.22s-2.68 3.67-10.21 4.39c-7 .63-10.44-2-10.44-2s-12.9-46.15-16.5-57.78c-4.89-15.77-11.75-43.46-11.75-43.46l-4.55 31.68s1.47 15.18-1.48 29.52c-3.66 17.73-7.38 37.04-7.38 37.04a23.68 23.68 0 01-10.49 1.3c-8.14-.82-10.86-2.71-10.86-2.71s-2.29-53.69-2.29-73.3.44-67.6 3.09-98.12z" fill="#455a64"/><path d="M387.3 266.72l-5.65-34.31s-11.35-3-18.64-10.62c.54 5.68 10.64 13 15.37 14.1l6.31 30.4-1.94 32.11zm13.18-69.24a46.89 46.89 0 014.26 9 86.22 86.22 0 012.83 9.54c.75 3.23 1.37 6.49 1.8 9.78a64.42 64.42 0 01.66 9.92c-.8-3.23-1.53-6.43-2.26-9.63s-1.45-6.4-2.23-9.59-1.54-6.36-2.35-9.53-1.72-6.32-2.71-9.49zm4.34 1.2a35 35 0 014.48 5 48 48 0 013.65 5.67 43.72 43.72 0 012.77 6.16 26.43 26.43 0 011.51 6.58l-3-5.94c-1-1.94-2-3.89-3.1-5.8s-2.13-3.85-3.18-5.79-2.15-3.84-3.13-5.88zm-7.21 39.68c1.43 10.28 2.72 20.57 4 30.85s3.8 21.63 5.69 31.79 13.9 49.94 15.47 60.2c-2.37-10.11-15.53-49.6-17.52-59.82s-4.25-21.65-5.25-32-1.76-20.66-2.39-31.02zm-36.92 0l-1.69 27c-.25 4.51-.54 9-.75 13.52s-.47 9-.39 13.46.37 47.66-.24 56.7c-1.06-10.07-1.55-47.57-1.85-56.66 0-9.14.8-18.12 1.61-27.14s1.92-17.95 3.31-26.88zm14.05 122.29l-1.53 9.4s-3.77 2.4-11.67 1.59-9-3.38-9-3.38v-8.84s1.9 1.84 9.11 2.65a31 31 0 0013.09-1.42zm61.26-1.59l.71 9.5s-3.1 3.21-11 4.26-9.58-1.17-9.58-1.17l-2.06-8.6s2.27 1.35 9.48.46a31 31 0 0012.45-4.45zm-72.34-238.82c-5.26 1.47-8.8 4.62-21.83 14.76-11.1 8.63-14.22 11.46-14.22 11.46s-13.32 7.91-13.78 10.52-4.21 5.28-2.05 13.22 6.55 9 8.79 8.88c3.86-.19 7.05-1.9 15.57-7.23s22.75-15.2 22.75-15.2z" fill="#37474f"/><path d="M329.69 147.81a24.78 24.78 0 012.58 13.5 23.86 23.86 0 01-7.06 14.41c-2.57 2.28-6.82 3.56-10.91-3.27-4.95-8.26-5.18-17.35-6.72-28.14-2.08-14.69-2.48-18.31-3.73-22.31-.8-2.57-3.44-6.88-3.63-9.61a36.82 36.82 0 01.46-9.48c.56-3.52 3.11-2.79 3.62-2.51.9-2.63 3.2-3.73 5-2.79a4.87 4.87 0 015.71 0c1.16-1.06 3.59-1.2 4.43.61a5.92 5.92 0 01.11 2.39c.7 1.05.77 6.67 2.27 7.7s3.24.16 5.64-.6 5.36-.74 6.71.58c1.07 1 .58 2-.56 2.55s-3.76 1.33-5.69 2.29c-2.84 1.41-4 1.87-5.08 3.2a24.09 24.09 0 00-3.33 4.87c-.59 1.44-1.11 3.23.51 7.45s7.33 14.62 9.67 19.16z" fill="#b16668"/><path d="M309 109.68v.13a1.26 1.26 0 01-.41 1.38 1 1 0 01-.72.1 1.65 1.65 0 01-.71-.46 25 25 0 01-2.58-3.09v.1-.06c-.45-.63-.85-1.3-1.36-1.9-.25-.3-.53-.57-.79-.85a2.78 2.78 0 01-.62-1 2.65 2.65 0 00.56 1c.25.3.5.59.73.9.45.62.8 1.3 1.21 2v-.09.05a24.75 24.75 0 002.41 3.34 2.36 2.36 0 00.95.67 1.59 1.59 0 001.26-.09 1.65 1.65 0 00.83-1 2.65 2.65 0 00.1-1.21v.06z" fill="#9a4a4d"/><path d="M301.58 106.35a3.19 3.19 0 001.13.69 6.21 6.21 0 001.3.34v-.44a4.25 4.25 0 01-2.43-.59zm7.69-8.78a11.67 11.67 0 00.23 2.13c.12.7.25 1.41.42 2.1l.22 1 .28 1 .58 2.2.06.15.72 2.13.37 1.06a2.37 2.37 0 01.22.93.92.92 0 01-.39.63.68.68 0 01-.67.09 3.43 3.43 0 01-1.46-1.3l-.07-.1a20.29 20.29 0 01-1.25-2.25l-1.25-2.37c-.42-.79-.83-1.59-1.3-2.35-.24-.39-.47-.77-.73-1.14a3.08 3.08 0 00-.91-1 3.38 3.38 0 01.75 1.08c.21.4.4.8.59 1.2l1.1 2.44 1.08 2.46.57 1.22a9.2 9.2 0 00.72 1.25l-.07-.11.08.14a4.12 4.12 0 001.88 1.64 1.59 1.59 0 001.47-.21 1.8 1.8 0 00.49-.59 1.54 1.54 0 00.24-.73A3 3 0 00313 109l-.4-1.07-.79-2.12-.7-2-.35-1-.29-1a34.69 34.69 0 01-1.2-4.24z" fill="#9a4a4d"/><path d="M315 97.57a30.57 30.57 0 00-.36 7.22l.22 1.79a9 9 0 01.08 1.71c0 .58-.12 1.06-.59 1.29a2 2 0 01-1.64-.1 2 2 0 001.78.51 1.41 1.41 0 00.84-.66 3.12 3.12 0 00.3-1 7.35 7.35 0 00.06-1.87l-.16-1.78c-.11-1.18-.15-2.37-.23-3.56s-.19-2.35-.3-3.55z" fill="#9a4a4d"/><path d="M315.19 106v.2a6.69 6.69 0 00.5 2 2.32 2.32 0 001.68 1.24 1.53 1.53 0 001.1-.18 1.9 1.9 0 00.72-.87 6.2 6.2 0 00.26-2.07l.12-4.06v-2a6.54 6.54 0 00-.23-2 7.51 7.51 0 010 2l-.17 2c-.12 1.35-.16 2.72-.22 4.06a6.09 6.09 0 01-.2 1.94 1.25 1.25 0 01-1.39.85 2 2 0 01-1.53-1 7.37 7.37 0 01-.67-1.88z" fill="#9a4a4d"/><path d="M315.23 106.18c.33 1.68.68 2.63 1.92 3s2-.7 2.07-1.64c0-.61.06-1.33.07-2.31a2.14 2.14 0 01-2.08 1.54 2.47 2.47 0 01-1.98-.59zm-10.79 1.65a19.35 19.35 0 002.89 3.56c.91.69 2.39.09 2.1-1.66a.93.93 0 00.05.1c1.11 1.58 2.25 1.9 2.94 1.14a1.36 1.36 0 00.26-1.49c.57.45 2.16.77 2.49-.63a7.72 7.72 0 000-2.63 1.62 1.62 0 01-1.46 1.06 2.38 2.38 0 01-2.34-1.37v-.09c.08 1.54-.64 2.07-1.11 2.28s-1.74 0-2-.46c-.06-.12-.13-.26-.2-.42-.2-.41-.42-.88-.48-1a1.74 1.74 0 01-.82 1.71c-1 .61-1.96.43-2.32-.1z" fill="#9a4a4d" opacity=".5"/><path d="M312.25 110.46a11.75 11.75 0 00-1.39 4.29 9.43 9.43 0 00.39 4.39 9.23 9.23 0 01.05-4.31A11.18 11.18 0 01313 111zm-4.86 12.33c1.58.17 3.08-.63 4.5-.5s4.54.42 6.39-1.94a20.23 20.23 0 015.33-4.88 7.74 7.74 0 00-.8.82 24.09 24.09 0 00-3.33 4.87c-.59 1.44-1.11 3.23.51 7.45.09.25.21.52.33.81s-1.79-3.11-3.45-4.26-4.53-.87-7.47-1-3.59-1.54-2.01-1.37z" fill="#9a4a4d"/><path d="M353.49 45.86a1 1 0 00-1 .08L270 93.58a3.69 3.69 0 00-1.54 2.94v52.85a1.37 1.37 0 00.52 1.24c.27.17 20.58 11.88 20.91 12.07a1 1 0 001-.08l82.49-47.6a3.69 3.69 0 001.54-3V59.17a1.34 1.34 0 00-.54-1.24z" fill="#ba68c8"/><path d="M353.49 45.86a1 1 0 00-1 .08L270 93.58a3.69 3.69 0 00-1.54 2.94v52.85a1.37 1.37 0 00.52 1.24c.27.17 20.58 11.88 20.91 12.07a1 1 0 001-.08l82.49-47.6a3.69 3.69 0 001.54-3V59.17a1.34 1.34 0 00-.54-1.24z" fill="#fff" opacity=".7"/><path d="M373.38 115l-82.51 47.6c-.85.49-1.54 0-1.54-1.16v-52.85a3.69 3.69 0 011.54-3L373.38 58c.85-.49 1.54 0 1.54 1.16V112a3.69 3.69 0 01-1.54 3z" fill="#ba68c8"/><path d="M373.38 115l-82.51 47.6c-.85.49-1.54 0-1.54-1.16v-52.85a3.69 3.69 0 011.54-3L373.38 58c.85-.49 1.54 0 1.54 1.16V112a3.69 3.69 0 01-1.54 3z" fill="#fff" opacity=".5"/><path d="M297.27 108.57a2.35 2.35 0 00-2.37.24 7.42 7.42 0 00-3.35 5.81 2.35 2.35 0 001 2.17l1.68 1a2.34 2.34 0 002.37-.24 7.41 7.41 0 003.36-5.81 2.35 2.35 0 00-1-2.17z" fill="#ba68c8"/><path d="M297.27 108.57a2.35 2.35 0 00-2.37.24 7.42 7.42 0 00-3.35 5.81 2.35 2.35 0 001 2.17l1.68 1a2.34 2.34 0 002.37-.24 7.41 7.41 0 003.36-5.81 2.35 2.35 0 00-1-2.17z" opacity=".15"/><path d="M294.9 114.62l-3-1.77a5.92 5.92 0 00-.3 1.77 2.35 2.35 0 001 2.17l1.68 1a2.34 2.34 0 002.37-.24 5.62 5.62 0 001.38-1.14z" opacity=".15"/><path d="M294.36 114.19l-2.48-1.44c0 .07-.05.14-.07.2l2.45 1.41zm-2.14-2.28l2.46 1.42.1-.18-2.47-1.43zm-.21 4.4l2.28 1.31.1-.18-2.59-1.44a2.12 2.12 0 00.2.31zm2.07 0l-2.52-1.46v.26l2.39 1.38zm0-1.12l-2.5-1.44v.22l2.42 1.4zm-1.35-4.31l2.47 1.43.11-.18-2.46-1.42zm.68-.89l2.48 1.43.1-.17-2.44-1.42zm1.69-1.35l2.53 1.46.1-.18-2.4-1.38zm1.44-.32a2.8 2.8 0 00-.41 0l2.6 1.51.1-.18zm-2.36.93l2.5 1.44.1-.18-2.42-1.4z" opacity=".25"/><path d="M293.23 115.59c0 2.14 1.5 3 3.35 1.93a7.41 7.41 0 003.36-5.81c0-2.14-1.51-3-3.36-1.93a7.42 7.42 0 00-3.35 5.81z" fill="#ba68c8"/><path d="M295.08 117.26c-1 0-1.13-1.17-1.13-1.67a6.74 6.74 0 013-5.19 2.46 2.46 0 011.14-.36c1 0 1.13 1.17 1.13 1.67a6.74 6.74 0 01-3 5.19 2.31 2.31 0 01-1.14.36zm3-7a2.09 2.09 0 00-1 .33 6.5 6.5 0 00-2.89 5c0 .44.09 1.46.92 1.46a2.15 2.15 0 001-.33 6.51 6.51 0 002.89-5c0-.45-.08-1.47-.92-1.47z" fill="#fff"/><path d="M370.7 66.18a2.35 2.35 0 00-2.37.24 7.43 7.43 0 00-3.33 5.81 2.35 2.35 0 001 2.17l1.68 1a2.35 2.35 0 002.37-.24 7.42 7.42 0 003.35-5.81 2.35 2.35 0 00-1-2.17z" fill="#ba68c8"/><path d="M370.7 66.18a2.35 2.35 0 00-2.37.24 7.43 7.43 0 00-3.33 5.81 2.35 2.35 0 001 2.17l1.68 1a2.35 2.35 0 002.37-.24 7.42 7.42 0 003.35-5.81 2.35 2.35 0 00-1-2.17z" opacity=".15"/><path d="M368.33 72.23l-3.06-1.77a5.92 5.92 0 00-.3 1.77 2.35 2.35 0 001 2.17l1.68 1a2.35 2.35 0 002.37-.24 6.06 6.06 0 001.37-1.16z" opacity=".15"/><path d="M367.78 71.79l-2.47-1.43c0 .07-.05.14-.07.2l2.44 1.44zm-2.13-2.27l2.45 1.42.1-.18-2.47-1.43c-.03.06-.05.13-.08.19zm-.21 4.4l2.28 1.31.1-.18-2.59-1.49a2.12 2.12 0 00.21.36zm2.07 0L365 72.5a2 2 0 000 .25l2.39 1.39zm0-1.12L365 71.4a1.64 1.64 0 000 .22l2.42 1.4zm-1.34-4.31l2.5 1.51.1-.18-2.45-1.41zm.68-.89l2.48 1.43.1-.18-2.43-1.37zm1.69-1.35l2.52 1.46.1-.18-2.39-1.38zM370 66a2.81 2.81 0 00-.41 0l2.6 1.5.1-.17zm-2.37.92l2.5 1.45.1-.18-2.42-1.4z" opacity=".25"/><path d="M366.65 73.2c0 2.14 1.5 3 3.36 1.93a7.42 7.42 0 003.35-5.81c0-2.14-1.5-3-3.35-1.94a7.42 7.42 0 00-3.36 5.82z" fill="#ba68c8"/><path d="M368.51 74.87c-1 0-1.14-1.17-1.14-1.67a6.72 6.72 0 013-5.19 2.31 2.31 0 011.13-.36c1 0 1.14 1.17 1.14 1.67a6.74 6.74 0 01-3 5.19 2.46 2.46 0 01-1.13.36zm3-7a2.15 2.15 0 00-1 .33 6.49 6.49 0 00-2.89 5c0 .44.09 1.46.93 1.46a2.12 2.12 0 001-.33 6.5 6.5 0 002.89-5c-.01-.45-.1-1.47-.94-1.47z" fill="#fff"/><path d="M289.33 159.68v1.76c0 1.13.69 1.65 1.54 1.16l82.51-47.6a3.69 3.69 0 001.54-3v-1.75z" fill="#ba68c8"/><path d="M361.9 78.17l-59.55 34.38c-.29.17-.52 0-.52-.39v-6.45a1.23 1.23 0 01.52-1l59.55-34.37c.29-.17.52 0 .52.39v6.45a1.23 1.23 0 01-.52.99z" fill="#455a64"/><path fill="#e0e0e0" d="M360.61 72.89l-56.98 32.89v.56l.01.01 56.97-32.88v-.58zm0 3.65l-56.98 32.89v.56l.01.01 56.97-32.89v-.57zM318.21 100l.29-.16v-1l-.29.17zm1.79-1.07l.29-.16v-1l-.29.17zm1.84-1.06l.29-.16v-1l-.29.17zm1.84-1.06l.29-.16v-1l-.29.17zm5.51-3.18l.28-.16v-1l-.28.17zm-3.68 2.12l.29-.16v-1l-.29.17zm1.84-1.06l.29-.16v-1l-.29.17zm3.67-2.12l.29-.16v-1l-.29.17zM309 105.3l.29-.17v-1l-.29.17zm-3.68 2.12l.29-.17v-1l-.29.17zm11-6.37l.29-.16v-1l-.29.17zm-12.85 7.43l.29-.17v-1l-.29.17zm7.34-4.24l.29-.17v-1l-.29.17zm3.68-2.13l.28-.16v-1l-.28.17zm-1.84 1.07l.35-.18v-1l-.29.17zm-5.51 3.18l.29-.17v-1l-.29.17zm47.74-27.57l.29-.17v-1l-.29.16zm-22 12.72l.29-.16v-1l-.29.17zm20.2-11.66l.29-.17v-1l-.29.16zM347.59 83l.29-.17v-1l-.29.16zm1.84-1l.28-.17v-1l-.28.16zm11-7.39v1l.29-.17v-1zm-1.83 2.09l.29-.17v-1l-.29.16zm-1.84 1.06l.29-.17v-1l-.29.16zm-5.51 3.18l.29-.17v-1l-.29.16zm-14.69 8.48l.29-.16v-1l-.29.16zm1.84-1.06l.29-.16v-1l-.29.16zm-3.68 2.12l.29-.16v-1l-.29.17zm11-6.36l.29-.17v-1l-.29.16zm-1.83 1.06l.29-.17V84l-.29.16zm-3.68 2.12l.29-.16v-1l-.29.16zm1.84-1.06l.29-.16V85l-.29.16z"/><path d="M343.56 121.54l-22.87 13.2c-.37.22-.68 0-.68-.51a1.65 1.65 0 01.68-1.3l22.87-13.2c.37-.21.68 0 .68.51a1.64 1.64 0 01-.68 1.3zm-26.77 16.92l-23 13.28c-.6.34-1.08 0-1.08-.82v-25.86a2.59 2.59 0 011.08-2.07l23-13.27c.59-.35 1.08 0 1.08.81v25.87a2.6 2.6 0 01-1.08 2.06z" fill="#455a64"/><path d="M299.74 147.64c-4.71 0-7.75-3.82-7.75-9.74 0-8.19 5.77-18.18 12.86-22.27a12 12 0 016-1.82c4.71 0 7.75 3.83 7.75 9.75 0 8.18-5.76 18.17-12.85 22.27a12.12 12.12 0 01-6 1.81z" fill="#ba68c8"/><path d="M292.87 137.9c0 7.92 5.56 11.13 12.42 7.17s12.41-13.59 12.41-21.51-5.56-11.13-12.41-7.17-12.42 13.61-12.42 21.51z" fill="#263238"/><path d="M316.65 123c0-3.65-1.18-6.3-3.13-7.7-2.19-1-5.07-.69-8.23 1.14-6.86 4-12.42 13.59-12.42 21.51 0 3.65 1.18 6.29 3.13 7.7 2.19 1 5.07.68 8.24-1.14 6.85-4.01 12.41-13.64 12.41-21.51z" fill="#37474f"/><path d="M295.79 135c0 5.39 3.78 7.57 8.45 4.88s8.44-9.24 8.44-14.62-3.78-7.57-8.44-4.88-8.45 9.23-8.45 14.62z" fill="#ba68c8"/><path d="M300.47 140.14c-2.38 0-3.8-1.92-3.8-5.15 0-5.09 3.59-11.31 8-13.86a6.91 6.91 0 013.33-1c2.37 0 3.79 1.92 3.79 5.15 0 5.09-3.59 11.31-8 13.86a7 7 0 01-3.33 1z" fill="#37474f"/><path d="M301.19 138.22c-1.92 0-3.07-1.55-3.07-4.16a14.29 14.29 0 016.47-11.2 5.54 5.54 0 012.69-.84c1.92 0 3.07 1.55 3.07 4.16a14.32 14.32 0 01-6.47 11.21 5.62 5.62 0 01-2.69.83z" fill="#455a64"/><path d="M294.47 135.76a9.82 9.82 0 00.8 3.76 5 5 0 002.6 2.64 5.72 5.72 0 003.7.14 11.18 11.18 0 003.43-1.64 19.51 19.51 0 005.24-5.58 21.09 21.09 0 001.79-3.43 17.09 17.09 0 001.09-3.72 17.91 17.91 0 01-2.59 7.33 21.08 21.08 0 01-2.34 3.15 17.07 17.07 0 01-2.95 2.61 11.44 11.44 0 01-3.57 1.67 5.93 5.93 0 01-3.94-.22 5.26 5.26 0 01-2.65-2.86 9.41 9.41 0 01-.61-3.85z" fill="#455a64"/><path d="M294.27 141.5a6 6 0 002.13 2.08 5.54 5.54 0 002.85.69 10.72 10.72 0 005.55-2 20.25 20.25 0 004.46-4 24.87 24.87 0 001.8-2.42 24.52 24.52 0 001.53-2.62 21.63 21.63 0 01-3.07 5.25 19.74 19.74 0 01-4.48 4.17 13.4 13.4 0 01-2.76 1.37 8.09 8.09 0 01-3 .54 5.67 5.67 0 01-2.95-.84 5.78 5.78 0 01-2.06-2.22z" fill="#455a64"/><path d="M316 111.93c.38-.22.7 0 .7.4a1.55 1.55 0 01-.7 1.21c-.39.22-.7 0-.7-.4a1.52 1.52 0 01.7-1.21zm0 23.84c.38-.22.7 0 .7.41a1.55 1.55 0 01-.7 1.2c-.39.22-.7 0-.7-.4a1.55 1.55 0 01.7-1.21zm-21.25-11.59c.38-.23.69-.05.69.4a1.57 1.57 0 01-.69 1.21c-.39.22-.7 0-.7-.41a1.52 1.52 0 01.7-1.2zm0 23.82c.38-.22.69 0 .69.4a1.54 1.54 0 01-.69 1.21c-.39.22-.7 0-.7-.4a1.52 1.52 0 01.7-1.21z" fill="#263238"/><path d="M370.46 107.47l-23 13.28c-.59.34-1.08 0-1.08-.82V94.07a2.62 2.62 0 011.08-2.07l23-13.27c.6-.35 1.08 0 1.08.81v25.87a2.57 2.57 0 01-1.08 2.06z" fill="#455a64"/><path d="M353.42 116.65c-4.71 0-7.75-3.82-7.75-9.74 0-8.19 5.76-18.18 12.85-22.27a12 12 0 016-1.82c4.71 0 7.75 3.83 7.75 9.75 0 8.18-5.77 18.17-12.86 22.27a12.09 12.09 0 01-6 1.81z" fill="#ba68c8"/><path d="M346.55 106.91c0 7.92 5.56 11.13 12.41 7.17s12.42-13.59 12.42-21.51-5.56-11.13-12.38-7.17-12.45 13.6-12.45 21.51z" fill="#263238"/><path d="M370.33 92c0-3.65-1.18-6.3-3.13-7.7-2.19-1-5.07-.69-8.24 1.14-6.85 4-12.41 13.59-12.41 21.51 0 3.65 1.18 6.29 3.13 7.7 2.19 1 5.07.68 8.23-1.14 6.86-4 12.42-13.63 12.42-21.51z" fill="#37474f"/><path d="M349.47 104c0 5.39 3.78 7.57 8.44 4.88s8.44-9.24 8.44-14.62-3.77-7.57-8.44-4.88-8.44 9.24-8.44 14.62z" fill="#ba68c8"/><path d="M354.14 109.15c-2.37 0-3.79-1.92-3.79-5.15 0-5.09 3.59-11.31 8-13.86a7 7 0 013.33-1c2.38 0 3.8 1.92 3.8 5.15 0 5.09-3.59 11.31-8 13.86a6.91 6.91 0 01-3.33 1z" fill="#37474f"/><path d="M354.86 107.23c-1.92 0-3.06-1.55-3.06-4.16a14.29 14.29 0 016.47-11.2A5.54 5.54 0 01361 91c1.92 0 3.07 1.55 3.07 4.16a14.32 14.32 0 01-6.47 11.21 5.62 5.62 0 01-2.69.83z" fill="#455a64"/><path d="M348.15 104.77a9.82 9.82 0 00.8 3.76 5 5 0 002.59 2.64 5.72 5.72 0 003.7.14 11.07 11.07 0 003.43-1.64 19.41 19.41 0 005.25-5.58 21.91 21.91 0 001.79-3.43 17.09 17.09 0 001.09-3.72 17.78 17.78 0 01-2.6 7.33 20.41 20.41 0 01-2.34 3.15 17 17 0 01-2.94 2.61 11.49 11.49 0 01-3.58 1.67 5.9 5.9 0 01-3.93-.22 5.32 5.32 0 01-2.66-2.86 9.4 9.4 0 01-.6-3.85z" fill="#455a64"/><path d="M347.94 110.51a6.06 6.06 0 002.13 2.08 5.57 5.57 0 002.85.69 10.76 10.76 0 005.56-2 20.2 20.2 0 004.45-4 25 25 0 001.81-2.42 28.44 28.44 0 001.53-2.62 21.34 21.34 0 01-3.08 5.25 19.48 19.48 0 01-4.47 4.17 13.65 13.65 0 01-2.76 1.37 8.09 8.09 0 01-3 .54 5.67 5.67 0 01-2.95-.84 5.88 5.88 0 01-2.07-2.22z" fill="#455a64"/><path d="M369.64 80.94c.38-.22.69 0 .69.4a1.54 1.54 0 01-.69 1.21c-.39.22-.7 0-.7-.4a1.52 1.52 0 01.7-1.21zm0 23.84c.38-.22.69 0 .69.41a1.54 1.54 0 01-.69 1.2c-.39.22-.7 0-.7-.4a1.55 1.55 0 01.7-1.21zm-21.21-11.59c.38-.23.69 0 .69.4a1.57 1.57 0 01-.69 1.21c-.39.22-.7 0-.7-.41a1.52 1.52 0 01.7-1.2zm0 23.81c.38-.22.69 0 .69.4a1.54 1.54 0 01-.69 1.21c-.39.22-.7 0-.7-.4a1.52 1.52 0 01.7-1.21z" fill="#263238"/><path d="M342.06 96.88a1.26 1.26 0 00-1.26.13l-18.23 10.53a3.94 3.94 0 00-1.79 3.09v17.18a1.27 1.27 0 00.52 1.16l.89.51a1.26 1.26 0 001.26-.13l18.23-10.52a4 4 0 001.79-3.1V98.55a1.27 1.27 0 00-.52-1.16z" fill="#37474f"/><path d="M323.45 108l18.23-10.52c1-.57 1.79-.11 1.79 1v17.18a4 4 0 01-1.79 3.1l-18.23 10.52c-1 .57-1.79.11-1.79-1v-17.14a4 4 0 011.79-3.14z" fill="#455a64"/><path d="M322.9 111.14a2.75 2.75 0 011.17-2l18.16-10.49v17.1a2.75 2.75 0 01-1.17 2l-18.16 10.49z" fill="#263238"/><path d="M327.53 125a3.83 3.83 0 011.79-3l6.49-3.74c1-.57 1.79-.17 1.79.9v1L327.53 126zm-2.51-1.93l15.1-8.72v.48l-15.1 8.72v-.48z" fill="#455a64"/><path fill="#ba68c8" d="M340.12 101.27l-6.72 3.88v1.93l6.72-3.87v-1.94z"/><path fill="#455a64" d="M324.99 112.91l15.13-8.73v9.2l-15.1 8.72-.03-9.19z"/><path d="M334.71 112.14c0 1.07.75 1.51 1.68 1a3.71 3.71 0 001.68-2.91c0-1.07-.76-1.5-1.68-1a3.68 3.68 0 00-1.68 2.91z" fill="#37474f"/><path d="M336.76 110.53a.36.36 0 00-.37 0 1.15 1.15 0 00-.53.91.36.36 0 00.16.34l1.65 1a.34.34 0 00.37 0 1.14 1.14 0 00.52-.91.39.39 0 00-.15-.34z" fill="#263238"/><path d="M337.51 112.43c0 .34.24.47.53.3a1.14 1.14 0 00.52-.91c0-.33-.23-.47-.52-.3a1.18 1.18 0 00-.53.91zm-10.44 4.12c0 1.07.76 1.5 1.68 1a3.72 3.72 0 001.68-2.91c0-1.07-.75-1.5-1.68-1a3.74 3.74 0 00-1.68 2.91z" fill="#37474f"/><path d="M329.12 114.94a.36.36 0 00-.37 0 1.17 1.17 0 00-.52.91.37.37 0 00.15.34l1.65 1a.36.36 0 00.37 0 1.16 1.16 0 00.53-.91.36.36 0 00-.16-.34z" fill="#263238"/><path d="M329.88 116.84c0 .33.23.47.52.3a1.16 1.16 0 00.53-.91c0-.33-.24-.47-.53-.3a1.14 1.14 0 00-.52.91z" fill="#37474f"/><path fill="#ba68c8" d="M326.41 91.17v7.16l.53-.3v-7.16l-.53.3zm-36.52 71.52c-.33-.18-20.64-11.9-20.91-12.07a1.37 1.37 0 01-.52-1.24V96.52a3.77 3.77 0 01.49-1.77l20.89 12.06a3.84 3.84 0 00-.49 1.78v52.85a1.33 1.33 0 00.54 1.25z"/><path d="M289.89 162.69c-.33-.18-20.64-11.9-20.91-12.07a1.37 1.37 0 01-.52-1.24V96.52a3.77 3.77 0 01.49-1.77l20.89 12.06a3.84 3.84 0 00-.49 1.78v52.85a1.33 1.33 0 00.54 1.25z" fill="#fff" opacity=".3"/><path fill="#ba68c8" d="M275.4 98.49l5.58 3.21 84.61-48.85-5.57-3.22-84.62 48.86z"/><path fill="#ba68c8" opacity=".5" d="M317.19 84.01l2.95 1.71 18.52-10.69-2.95-1.7-18.52 10.68z"/><path fill="#ba68c8" opacity=".5" d="M335.71 73.33v2.98l.36.21 2.59-1.49-2.95-1.7z"/><path d="M337.79 75.53L335.32 77l-.18.11-2.29-1.34.23-1.2a1.66 1.66 0 01.69-1l1-.59a1.25 1.25 0 011.13 0l1 .59a1.66 1.66 0 01.69 1z" fill="#37474f"/><path d="M335.89 74.79a1.08 1.08 0 00-.57.95V77l-.18.11-2.29-1.34.23-1.2a1.66 1.66 0 01.69-1z" fill="#263238"/><path d="M334.77 73l-1 .59a.35.35 0 000 .66l1 .57a1.22 1.22 0 001.13 0l1-.58a.35.35 0 000-.66l-1-.59a1.25 1.25 0 00-1.13.01z" fill="#455a64"/><path d="M334.79 77.26l-2.47 1.43-.18.1-2.3-1.34.24-1.2a1.66 1.66 0 01.69-1l1-.59a1.22 1.22 0 011.13 0l1 .58a1.65 1.65 0 01.69 1z" fill="#f5f5f5"/><path d="M332.89 76.52a1.08 1.08 0 00-.57 1v1.22l-.18.1-2.3-1.34.24-1.2a1.66 1.66 0 01.69-1z" fill="#e0e0e0"/><path d="M331.77 74.69l-1 .59a.35.35 0 000 .66l1 .57a1.22 1.22 0 001.13 0l1-.58a.35.35 0 000-.66l-1-.58a1.22 1.22 0 00-1.13 0z" fill="#fff"/><path d="M331.79 79l-2.47 1.43-.18.1-2.3-1.34.24-1.2a1.66 1.66 0 01.69-1l1-.58a1.19 1.19 0 011.13 0l1 .58a1.68 1.68 0 01.69 1z" fill="#f5f5f5"/><path d="M329.89 78.25a1.09 1.09 0 00-.57 1v1.22l-.18.1-2.3-1.34.24-1.2a1.66 1.66 0 01.69-1z" fill="#e0e0e0"/><path d="M328.77 76.43l-1 .58a.35.35 0 000 .66l1 .58a1.25 1.25 0 001.13 0l1-.58c.31-.18.31-.47 0-.66l-1-.58a1.19 1.19 0 00-1.13 0z" fill="#fff"/><path d="M328.79 80.73l-2.47 1.42-.18.1-2.3-1.34.24-1.19a1.65 1.65 0 01.69-1l1-.58a1.25 1.25 0 011.13 0l1 .58a1.68 1.68 0 01.69 1z" fill="#f5f5f5"/><path d="M326.89 80a1.09 1.09 0 00-.57 1v1.21l-.18.1-2.3-1.34.24-1.19a1.65 1.65 0 01.69-1z" fill="#e0e0e0"/><path d="M325.77 78.16l-1 .58a.35.35 0 000 .66l1 .58a1.25 1.25 0 001.13 0l1-.58c.31-.18.31-.47 0-.66l-1-.58a1.25 1.25 0 00-1.13 0z" fill="#fff"/><path d="M325.79 82.46l-2.47 1.42-.18.11-2.3-1.35.24-1.19a1.68 1.68 0 01.69-1l1-.58a1.25 1.25 0 011.13 0l1 .59a1.63 1.63 0 01.69 1z" fill="#f5f5f5"/><path d="M323.89 81.71a1.09 1.09 0 00-.57 1v1.21l-.18.11-2.3-1.35.24-1.19a1.68 1.68 0 01.69-1z" fill="#e0e0e0"/><path d="M322.77 79.89l-1 .58c-.31.19-.31.48 0 .66l1 .58a1.25 1.25 0 001.13 0l1-.58a.34.34 0 000-.65l-1-.59a1.25 1.25 0 00-1.13 0z" fill="#fff"/><path d="M322.79 84.19l-2.47 1.42-.18.11-2.3-1.33.24-1.21a1.68 1.68 0 01.69-1l1-.58a1.25 1.25 0 011.13 0l1 .59a1.66 1.66 0 01.69 1z" fill="#f5f5f5"/><path d="M320.89 83.44a1.09 1.09 0 00-.57 1v1.21l-.18.11-2.3-1.33.24-1.21a1.68 1.68 0 01.69-1z" fill="#e0e0e0"/><path d="M319.77 81.62l-1 .58a.36.36 0 000 .67l1 .57a1.25 1.25 0 001.13 0l1-.57a.35.35 0 000-.66l-1-.59a1.25 1.25 0 00-1.13 0z" fill="#fff"/><path fill="#ba68c8" opacity=".5" d="M290.73 99.29l2.95 1.71 12.53-7.24-2.95-1.7-12.53 7.23z"/><path fill="#ba68c8" opacity=".5" d="M303.26 92.06v2.98l.37.21 2.58-1.49-2.95-1.7z"/><path d="M305.33 94.27l-2.47 1.43-.18.1-2.3-1.34.24-1.2a1.66 1.66 0 01.69-1l1-.59a1.22 1.22 0 011.13 0l1 .58a1.66 1.66 0 01.7 1z" fill="#f5f5f5"/><path d="M303.43 93.53a1.08 1.08 0 00-.57 1v1.17l-.18.1-2.3-1.34.24-1.2a1.66 1.66 0 01.69-1z" fill="#e0e0e0"/><path d="M302.31 91.71l-1 .58a.35.35 0 000 .66l1 .58a1.27 1.27 0 001.14 0l1-.58a.35.35 0 000-.66l-1-.58a1.19 1.19 0 00-1.14 0z" fill="#fff"/><path d="M302.33 96l-2.47 1.43-.18.1-2.3-1.34.23-1.19a1.67 1.67 0 01.7-1l1-.58a1.23 1.23 0 011.12 0l1 .58a1.66 1.66 0 01.7 1z" fill="#f5f5f5"/><path d="M300.43 95.26a1.09 1.09 0 00-.57.95v1.22l-.18.1-2.3-1.34.23-1.19a1.67 1.67 0 01.7-1z" fill="#e0e0e0"/><path d="M299.31 93.44l-1 .58a.35.35 0 000 .66l1 .58a1.27 1.27 0 001.14 0l1-.58c.32-.18.32-.47 0-.66l-1-.58a1.22 1.22 0 00-1.14 0z" fill="#fff"/><path d="M299.33 97.74l-2.47 1.42-.18.1-2.3-1.34.23-1.19a1.66 1.66 0 01.7-1l1-.58a1.25 1.25 0 011.13 0l1 .59a1.61 1.61 0 01.7 1z" fill="#f5f5f5"/><path d="M297.43 97a1.09 1.09 0 00-.57 1v1.21l-.18.1-2.3-1.34.23-1.19a1.66 1.66 0 01.7-1z" fill="#e0e0e0"/><path d="M296.3 95.17l-1 .58c-.32.19-.32.48 0 .66l1 .58a1.27 1.27 0 001.14 0l1-.58c.32-.18.32-.47 0-.65l-1-.59a1.27 1.27 0 00-1.14 0z" fill="#fff"/><path d="M296.33 99.47l-2.47 1.42-.18.11-2.3-1.33.23-1.21a1.66 1.66 0 01.7-1l1-.58a1.25 1.25 0 011.13 0l1 .59a1.63 1.63 0 01.7 1z" fill="#f5f5f5"/><path d="M294.43 98.72a1.09 1.09 0 00-.57 1v1.21l-.18.11-2.3-1.33.23-1.21a1.66 1.66 0 01.7-1z" fill="#e0e0e0"/><path d="M293.3 96.9l-1 .58c-.32.19-.32.48 0 .67l1 .57a1.27 1.27 0 001.14 0l1-.57c.31-.19.32-.48 0-.66l-1-.59a1.25 1.25 0 00-1.14 0z" fill="#fff"/><path fill="#ba68c8" opacity=".5" d="M349.23 65.52l2.95 1.7 12.53-7.24-2.95-1.7-12.53 7.24z"/><path fill="#ba68c8" opacity=".5" d="M361.76 58.28v2.98l.37.22 2.58-1.5-2.95-1.7z"/><path d="M363.83 60.5l-2.47 1.42-.18.11-2.3-1.35.24-1.19a1.68 1.68 0 01.69-1l1-.58a1.25 1.25 0 011.13 0l1 .59a1.61 1.61 0 01.7 1z" fill="#f5f5f5"/><path d="M361.93 59.75a1.09 1.09 0 00-.57 1v1.21l-.18.11-2.3-1.35.24-1.19a1.68 1.68 0 01.69-1z" fill="#e0e0e0"/><path d="M360.81 57.93l-1 .58c-.31.19-.31.48 0 .66l1 .58a1.25 1.25 0 001.13 0l1-.58c.32-.18.32-.47 0-.65l-1-.59a1.25 1.25 0 00-1.13 0z" fill="#fff"/><path d="M360.83 62.23l-2.47 1.42-.18.11-2.3-1.34.24-1.2a1.63 1.63 0 01.69-1l1-.59a1.25 1.25 0 011.13 0l1 .59a1.63 1.63 0 01.7 1z" fill="#f5f5f5"/><path d="M358.93 61.49a1.07 1.07 0 00-.57.95v1.21l-.18.11-2.3-1.34.24-1.2a1.63 1.63 0 01.69-1z" fill="#e0e0e0"/><path d="M357.81 59.66l-1 .59c-.31.18-.31.47 0 .66l1 .57a1.24 1.24 0 001.14 0l1-.57a.35.35 0 000-.66l-1-.59a1.25 1.25 0 00-1.14 0z" fill="#fff"/><path d="M357.83 64l-2.47 1.42-.18.11-2.3-1.34.23-1.2a1.68 1.68 0 01.7-1l1-.59a1.2 1.2 0 011.12 0l1 .58a1.63 1.63 0 01.7 1z" fill="#f5f5f5"/><path d="M355.93 63.22a1.08 1.08 0 00-.57 1v1.21l-.18.11-2.3-1.34.23-1.2a1.68 1.68 0 01.7-1z" fill="#e0e0e0"/><path d="M354.81 61.39l-1 .59a.35.35 0 000 .66l1 .57a1.24 1.24 0 001.14 0l1-.58a.35.35 0 000-.66l-1-.59a1.25 1.25 0 00-1.14.01z" fill="#fff"/><path d="M354.83 65.69l-2.47 1.43-.18.1-2.3-1.33.23-1.21a1.63 1.63 0 01.7-1l1-.59a1.22 1.22 0 011.13 0l1 .58a1.63 1.63 0 01.7 1z" fill="#f5f5f5"/><path d="M352.93 65a1.08 1.08 0 00-.57 1v1.22l-.18.1-2.3-1.33.23-1.21a1.63 1.63 0 01.7-1z" fill="#e0e0e0"/><path d="M351.8 63.13l-1 .58a.35.35 0 000 .66l1 .58a1.27 1.27 0 001.14 0l1-.58a.35.35 0 000-.66l-1-.58a1.21 1.21 0 00-1.14 0z" fill="#fff"/><path fill="#e0e0e0" d="M280.98 101.7v28.96l-5.58-3.22V98.49l5.58 3.21z"/><path d="M365.9 52.32l-5.57-3.22a.4.4 0 00-.41 0L276 97.55a2.23 2.23 0 00-1.11 1.93v28.26l5.57 3.21.52-.29v-28a1.72 1.72 0 01.86-1.48l83.76-48.36.52.3v-.48a.41.41 0 00-.22-.32z" fill="#ba68c8"/><path d="M365.9 52.32l-5.57-3.22a.4.4 0 00-.41 0L276 97.55a2.23 2.23 0 00-1.11 1.93v28.26l5.57 3.21.52-.29v-28a1.72 1.72 0 01.86-1.48l83.76-48.36.52.3v-.48a.41.41 0 00-.22-.32z" fill="#fff" opacity=".85"/><path d="M280.46 131l.52-.29v-28a1.77 1.77 0 01.23-.85l-6-3.48a2.29 2.29 0 00-.3 1.12v28.26z" fill="#ba68c8"/><path d="M280.46 131l.52-.29v-28a1.77 1.77 0 01.23-.85l-6-3.48a2.29 2.29 0 00-.3 1.12v28.26z" fill="#fff" opacity=".5"/><path d="M365.59 52.85l-83.76 48.36a1.72 1.72 0 00-.86 1.48v28l-.52.29v-28.29a2.25 2.25 0 011.11-1.93l83.92-48.44a.41.41 0 01.62.35v.48z" fill="#ba68c8"/><path d="M365.59 52.85l-83.76 48.36a1.72 1.72 0 00-.86 1.48v28l-.52.29v-28.29a2.25 2.25 0 011.11-1.93l83.92-48.44a.41.41 0 01.62.35v.48z" fill="#fff" opacity=".3"/><path d="M280.76 101.58a2.25 2.25 0 00-.3 1.11V131l.52-.29v-28a1.77 1.77 0 01.23-.85z" fill="#ba68c8"/><path d="M356.7 54.32V39.93a1.65 1.65 0 00-.83-1.44 1.62 1.62 0 00-1.66 0l-6.09 3.55.69 1.18 6.09-3.55a.27.27 0 01.28 0 .28.28 0 01.15.25v14.4a.33.33 0 00.2.28 1 1 0 001 0 .33.33 0 00.17-.28z" fill="#455a64"/><path d="M348.67 40.86a1 1 0 00-1-.1l-57 32.88a1 1 0 00-.42.93 3.18 3.18 0 001.44 2.5 1 1 0 001 .09c.31-.16 56.73-32.73 56.98-32.86a1 1 0 00.44-.94 3.21 3.21 0 00-1.44-2.5z" fill="#37474f"/><path d="M291.71 73.74a3.18 3.18 0 011.44 2.5c0 .92-.64 1.29-1.44.83a3.18 3.18 0 01-1.44-2.5c0-.92.64-1.29 1.44-.83z" fill="#263238"/><path d="M292.14 75.68a1.06 1.06 0 00-.49-.84.33.33 0 00-.35 0L285.83 78a4.33 4.33 0 00-2.16 3.74v14a.34.34 0 00.2.28 1 1 0 001 0c.14-.08.21-.18.2-.28v-14a3 3 0 011.48-2.56L292 76a.34.34 0 00.14-.32z" fill="#455a64"/><path d="M358 137.91c1.3-9.45 7.33-17.67 18.09-21.23l18.14-2.41c4.66 1.21 33.94 9.64 33.94 9.64L419 173.33s2.09 20.67 2.53 33.43c-13.54 8.58-51.48 8.09-65.78-.53-.59-13.06.95-58.96 2.25-68.32z" fill="#fafafa"/><path d="M362.46 213.15v5.32a36.84 36.84 0 01-12.76-6.31l-.13-6z" fill="#263238"/><path d="M352.45 149.44c.5-12 3.85-23.21 7.93-27 2.91-2.7 13.23-7.14 19-8v1.23c-1.23.11-3.36 1.72-4.34 3.31-1.84 3-3.66 7.9-5.91 16.44-3.06 11.64-6.47 35.36-6.63 49.36s0 28.35 0 28.35-10.7-3.42-12.89-7c-2-5.26.14-6.41.11-9.78-.18-15.76 2.36-38.14 2.73-46.91z" fill="#ba68c8"/><path d="M352.45 149.44c.5-12 3.85-23.21 7.93-27 2.91-2.7 13.23-7.14 19-8v1.23c-1.23.11-3.36 1.72-4.34 3.31-1.84 3-3.66 7.9-5.91 16.44-3.06 11.64-6.47 35.36-6.63 49.36s0 28.35 0 28.35-10.7-3.42-12.89-7c-2-5.26.14-6.41.11-9.78-.18-15.76 2.36-38.14 2.73-46.91z" opacity=".1"/><path d="M424.36 208.1s1.15 4.48.91 5.78-2.07 3.08-8.5 5.26c-5.76 2-16.73 5.53-26.41 5.2l-.34-6.07z" fill="#263238"/><path d="M395.79 133.71c1.51-6.38 6.65-13.24 8.19-19.44 0 0 6.6 2.66 14.87 5.49 0 0 3.38 1.52 6.31 2.8 5.9 2.56 6.9 8.68 4.55 17.26 0 0-3.87 18.49-5.92 29.86a63.88 63.88 0 00.4 26.59c.83 3.64 3.23 9.33.1 11.85-8.57 7.42-34.27 10.15-34.27 10.15s-.73-16.06 0-48.34c.4-18.09 3.85-28.09 5.77-36.22z" fill="#ba68c8"/><path d="M395.79 133.71c1.51-6.38 6.65-13.24 8.19-19.44 0 0 6.6 2.66 14.87 5.49 0 0 3.38 1.52 6.31 2.8 5.9 2.56 6.9 8.68 4.55 17.26 0 0-3.87 18.49-5.92 29.86a63.88 63.88 0 00.4 26.59c.83 3.64 3.23 9.33.1 11.85-8.57 7.42-34.27 10.15-34.27 10.15s-.73-16.06 0-48.34c.4-18.09 3.85-28.09 5.77-36.22z" opacity=".1"/><path d="M386.45 54.36a26.28 26.28 0 0129.09 17.28c3 9.18-2.06 23.75-12.38 32.88L368 75.5c-1.2-10.42 3.08-18.72 18.45-21.14z" fill="#263238"/><path d="M409.46 100.48c-3.83 1.18-5.67-1.38-5.67-1.38l-2 19.35a20.69 20.69 0 01-19.66 6.46c-4.08-.85-6.26-4-1.84-9.2l.46-5.72a34.18 34.18 0 01-6.46-.53c-4.12-.95-6.49-4.44-7.42-9-1.47-7.39-.43-20 2.93-33.62 4.92-3.27 22.52-.72 31.87 6.2-1.53 5.84-1.73 7.55-1.36 11.21s1.57 5.42 2.62 5.66c2 .45 2.44-1.69 3.82-2.94s6.3-1.68 8.06 2.87-2.41 9.73-5.35 10.64z" fill="#b16668"/><path d="M380.75 110c6.68-.18 15.27-2.67 17.62-5.56a22.57 22.57 0 003.3-5.31s-.43 4.13-2.23 6.67-8.44 6.73-18.89 6.68z" fill="#9a4a4d"/><path d="M385.15 84.41a2 2 0 102.11-1.89 2 2 0 00-2.11 1.89zm3.12-9.28l4.65 2.42a2.75 2.75 0 00-1.16-3.62 2.55 2.55 0 00-3.49 1.2zm-18.13-.36l4.83.12a2.32 2.32 0 00-2.26-2.49 2.52 2.52 0 00-2.57 2.37zm-.14 6.96a2 2 0 102.11-1.89 2 2 0 00-2.11 1.89z" fill="#263238"/><path d="M395.31 81.63l-.89-.29c-2.87-.94-6.68-1.88-9.11-1.76-3.06.15-4.26.81-5.86.47s-2.27-1.45-4.8-2.84c-2-1.11-5.63-1.82-8.43-2.15l-.87-.09c-.47 0-1.13.52-1.24 1.28a3.2 3.2 0 00.41 1.89 1.31 1.31 0 01.19.69 31 31 0 00.08 4.89 5.41 5.41 0 004.58 4.4 9.09 9.09 0 001.84.22h.15a5.66 5.66 0 001.6-.24h.24a1.2 1.2 0 00.19-.07l.16-.07.2-.09c.05 0 .12-.06.17-.1a2.12 2.12 0 00.36-.21 6.82 6.82 0 001.59-1.53c1.15-1.46 1.48-3.79 2.81-3.79h.15a1 1 0 01.17 0c1.71.37.95 2.81 1.5 4.78s1.74 4 5.48 4.84l.48.09.39.06a7.59 7.59 0 00.92.06h.77a5.69 5.69 0 001.11-.24l.39-.15a4.63 4.63 0 00.7-.36 6.4 6.4 0 001.52-1.42c.86-1.11 1.52-3.31 2.08-4.41a2.68 2.68 0 01.44-.61 3.27 3.27 0 001.22-1.57 1.46 1.46 0 00-.69-1.68zm-20 2.45a5.67 5.67 0 01-.46.86V85a.24.24 0 01-.06.09.26.26 0 01-.07.1 1.66 1.66 0 01-.16.21c-.05 0-.09.12-.15.17l-.05.06-.11.11a.52.52 0 01-.11.1 4.64 4.64 0 01-4.53.93 5.22 5.22 0 01-2-.89c-1.75-1.34-1.77-3.52-1.79-4.53 0-1.3.17-3.79.88-4.21a3.12 3.12 0 01.77-.26h.07l.32-.05h2.06l.44.09h.31c.4.09.81.22 1.26.37 1.92.68 3.79 2 4.15 2.83s-.19 2.65-.77 3.96zm16.94 3.22a.59.59 0 010 .08v.1c0 .03-.14.29-.23.47l-.17.29c-.09.15-.19.31-.3.47l-.12.16-.08.1-.08.1-.11.13-.13.14c-.05.05-.09.1-.15.15a1.07 1.07 0 01-.16.14 4.63 4.63 0 01-4.28.93 5.48 5.48 0 01-3.76-2.3 5.2 5.2 0 01-.77-2.75c0-1.43.14-3.07.86-3.7a2.52 2.52 0 011-.47h.26c.15 0 .3-.07.45-.09l.41-.07a12.93 12.93 0 011.32-.12h.51a11.5 11.5 0 011.31.07h.3c2.82.35 4.42 1.32 4.93 2s-.47 3-1.01 4.17z" fill="#263238"/><path fill="#263238" d="M395.31 81.63l11.11 5.64-1.18 1.54-10.41-5.11.48-2.07z"/><path d="M392.25 87.3a.59.59 0 010 .08v.1c0 .03-.14.29-.23.47l-.17.29c-.09.15-.19.31-.3.47l-.12.16-.08.1-.08.1-.11.13-.13.14c-.05.05-.09.1-.15.15a1.07 1.07 0 01-.16.14 4.63 4.63 0 01-4.28.93 5.48 5.48 0 01-3.76-2.3 5.2 5.2 0 01-.77-2.75c0-1.43.14-3.07.86-3.7a2.52 2.52 0 011-.47h.26c.15 0 .3-.07.45-.09l.41-.07a12.93 12.93 0 011.32-.12h.51a11.5 11.5 0 011.31.07h.3c2.82.35 4.42 1.32 4.93 2s-.47 3-1.01 4.17z" fill="#455a64"/><path d="M388.2 81.11h-.3a11.5 11.5 0 00-1.31-.07h-.45a1 1 0 00-.05.16 6.45 6.45 0 00.19 2c.06.69-.3 1.54-1 1.55s-1.05-.7-1.67-.75a1.27 1.27 0 00-1.18 1c-.16.54-.12 1.12-.24 1.67a3.17 3.17 0 01-.12.44 4.14 4.14 0 00.51 1.15 4.63 4.63 0 001.42 1.37 1.79 1.79 0 01.92-1.1c1.38-.53 2.64 1.82 4 1.33a1.76 1.76 0 00.9-1.9c-.09-.75-.41-1.45-.47-2.21a1.35 1.35 0 01.09-.69 1.45 1.45 0 011.6-.52 4.25 4.25 0 001.79.2 1.17 1.17 0 00.36-.16 2 2 0 00-.05-1.48c-.52-.67-2.14-1.64-4.94-1.99z" fill="#fff" opacity=".1"/><path d="M375.31 84.08a5.67 5.67 0 01-.46.86V85a.24.24 0 01-.06.09.26.26 0 01-.07.1 1.66 1.66 0 01-.16.21c-.05 0-.09.12-.15.17l-.05.06-.11.11a.52.52 0 01-.11.1 4.64 4.64 0 01-4.53.93 5.22 5.22 0 01-2-.89c-1.75-1.34-1.77-3.52-1.79-4.53 0-1.3.17-3.79.88-4.21a3.12 3.12 0 01.77-.26h.07l.32-.05h2.06l.44.09h.31c.4.09.81.22 1.26.37 1.92.68 3.79 2 4.15 2.83s-.19 2.65-.77 3.96z" fill="#455a64"/><path d="M376 80.33c-.36-.87-2.23-2.15-4.15-2.83-.45-.15-.86-.28-1.26-.37h-.31l-.44-.09h-.16a1.58 1.58 0 00-.34.67 6.48 6.48 0 00.19 2c.06.68-.3 1.54-1 1.54s-1.05-.7-1.67-.75a1.24 1.24 0 00-1.13.89v.07a5.66 5.66 0 001.61 4.36 1.47 1.47 0 01.77-.78c1.38-.54 2.64 1.82 4 1.32a1.75 1.75 0 00.9-1.89c-.09-.75-.41-1.46-.47-2.21a1.37 1.37 0 01.09-.7 1.45 1.45 0 011.6-.52 4.1 4.1 0 001.79.21h.05a2.06 2.06 0 00-.07-.92z" fill="#fff" opacity=".1"/><path d="M380.36 86.32L378.48 94l-7.17-3c.94-1.41 1.61-2.41 2.11-3.1a38 38 0 014.2-5.13c.19-.19.38-.35.57-.52a1.15 1.15 0 01.46-.1h.15a1 1 0 01.17 0c1.56.37 1.11 2.34 1.39 4.17zm4.38 9.61l-6.62 2a3.39 3.39 0 004.26 2.42 3.63 3.63 0 002.36-4.42z" fill="#9a4a4d"/><path d="M384.86 97a3.59 3.59 0 01-2.48 3.43 3.32 3.32 0 01-2.31-.15 5.31 5.31 0 014.79-3.28z" fill="#f28f8f"/><path d="M372.56 59.88c5.33-6.47 17.17-9.4 26.81-8.08s22.17 10.2 22.09 20.13c0 6-3.93 6.09-4.67 9.11s-1.56 6.66-2.62 7.51c0 0-.55-.7-1.13-1.29-1-5.54-5.44-16.64-15-23s-25.48-4.38-25.48-4.38z" fill="#37474f"/><path d="M407.76 86.38c-1.82-5.78-9.22-14.85-23.54-18.3S367.79 73 367.79 73l.1 1.71a3.43 3.43 0 01-.76-2.43c-.07-3.42.51-8.93 5.17-12.42 2.66-2 13.2-4.63 25.07 1.38s16.53 17.93 15.67 26a5.93 5.93 0 00-5.28-.86z" fill="#455a64"/><path d="M380.29 115.71c-5.4 7-13.48 26.35-15.27 41.16-.65-6.39-1.4-22.66 0-26.76a39 39 0 014.55-8.46s-1-3.21-.69-3.62c1.43-1.91 11.73-6.37 11.73-6.37zm22.31-5.14l-.46 4.51c-2.66 5.07-5.5 9.69-7.66 19a179.43 179.43 0 00-3.83 25.4s10.45-17.52 12.86-22.2c1.53-3 .62-11.84.62-11.84s5.45-1.47 6.16-2.23c1-1.06-.86-6.86-.86-6.86z" fill="#263238"/><path d="M418.85 119.76c11.37 3.15 14.69 3.63 26.39 24.37 5.7 10.08 14.09 25.21 14.76 34.24.69 9.27-3 10.63-13.42 10.43 0 0-21.45-34.91-24.29-37.25-7.22-5.92-8.72-23.14-3.44-31.79z" fill="#37474f"/><path d="M430.46 174.39c1.57 2.07 3.39 7.61 7.36 11.16s7.44 3.61 12.83 2.88 7.38-2.79 6.45-6.12-1.36-7.67-6.17-11.81c-3.41-2.93-5.2-3.63-13-8.84-1.78-1.19-5.12-3.22-6.69-4.48-2.26-1.64-3-2-4.88-3.38-3.17-2.29-3.75-2.56-8.08-4.14-3.94-1.42-6.51-2.15-8.41-3.16-1.65-.87-2.6-1.12-3-.4-.68 1.19-.07 2.58.35 3.4 1.25 2.38 5 4.74 5 4.74s-4.71.24-12.1.45c-4.56.12-7.2-.2-7.75.84-.63 1.2-.91 2.78 2.87 3.14s13.65 1.54 13.65 1.54a23.84 23.84 0 00-4.61 2.57c-1.06 1-.35 2.6.58 3.21a7.36 7.36 0 002.38.87 8.41 8.41 0 00-2.15 2c-.81 1.19.21 2.62.91 3 1 .55 3.41.11 3.41.11s-1.53 1.07-4.45 3c-3.76 2.54-4.37 3.6-3.74 4.51.85 1.22 3.45.25 6.39-1.26 4.14-2.13 6.25-3.53 7.91-4s2.11-1.13 6.36-.47 7.12-1.26 8.58.64z" fill="#b16668"/><path d="M426.32 153.8a30.41 30.41 0 00-3.35-2.17 28.91 28.91 0 00-3.69-1.52c-2.5-.93-5-1.71-7.55-2.64a17.8 17.8 0 01-1.85-.8 9.85 9.85 0 00-1.8-.79.92.92 0 00-1.34.76 3.08 3.08 0 00.15 1.87 8 8 0 002.26 3.17 21.67 21.67 0 003.13 2.43.16.16 0 01.06.22.19.19 0 01-.14.07l-9.8.39c-1.63.07-3.27.13-4.9.13h-2.45a5.17 5.17 0 00-2.27.41 1.83 1.83 0 00-.52.93 1.32 1.32 0 00.07 1 2.87 2.87 0 002 1c1.57.23 3.24.38 4.85.57l9.72 1.17a.24.24 0 01.07.46c-.88.39-1.75.8-2.59 1.25-.42.23-.84.46-1.23.72a3.32 3.32 0 00-1 .88 2 2 0 00.57 2.34 5.86 5.86 0 002.54 1 .21.21 0 01.16.25.19.19 0 01-.09.14 8.48 8.48 0 00-1.8 1.58 2.18 2.18 0 00-.54 1 1.88 1.88 0 00.19 1.08 2.56 2.56 0 00.71.88 1.94 1.94 0 001.06.35 9.79 9.79 0 002.41-.13.19.19 0 01.22.16.18.18 0 01-.08.18l-4.44 3c-.74.5-1.47 1-2.16 1.56a5.43 5.43 0 00-1.71 1.91 1 1 0 00.34 1 1.69 1.69 0 001.16.28 8.84 8.84 0 002.53-.7c1.64-.68 3.21-1.54 4.79-2.38s3.1-1.77 4.77-2.48c.42-.18.85-.29 1.27-.44a10.77 10.77 0 011.29-.41 8.74 8.74 0 012.7-.06c.89.08 1.77.25 2.66.34a14 14 0 002.67 0c.89-.07 1.77-.21 2.67-.25a2.67 2.67 0 012.42.87 2.65 2.65 0 00-2.42-.83c-.89.05-1.77.21-2.67.29a15 15 0 01-2.68.05c-.9-.08-1.78-.24-2.67-.31a8.65 8.65 0 00-2.64.1 9.8 9.8 0 00-1.26.42c-.42.16-.85.28-1.26.45-1.61.73-3.15 1.66-4.72 2.51s-3.14 1.72-4.81 2.41a9 9 0 01-2.62.74 2 2 0 01-1.38-.34 1.28 1.28 0 01-.45-1.37 3.41 3.41 0 01.79-1.16 12.51 12.51 0 011-.91c.7-.56 1.43-1.08 2.17-1.59l4.42-3 .14.34a10 10 0 01-2.51.15 2.49 2.49 0 01-1.26-.42 3 3 0 01-.83-1 2.28 2.28 0 01-.23-1.32 2.45 2.45 0 01.62-1.17 8.68 8.68 0 011.9-1.68l.07.39a6.21 6.21 0 01-2.76-1.13 2.82 2.82 0 01-.82-1.31 2 2 0 01.16-1.58 3.7 3.7 0 011.13-1c.42-.27.84-.51 1.27-.74.86-.46 1.73-.88 2.61-1.28l.07.46-9.74-1.11c-1.63-.2-3.23-.34-4.88-.59a3.24 3.24 0 01-2.26-1.21 1.75 1.75 0 01-.11-1.36 5.36 5.36 0 01.24-.6 1.37 1.37 0 01.45-.55 5.46 5.46 0 012.5-.48h2.45c1.64 0 3.27-.05 4.9-.11l9.8-.34-.08.3a22.35 22.35 0 01-3.17-2.48 8.33 8.33 0 01-2.32-3.29 3.41 3.41 0 01-.14-2.05 1.48 1.48 0 01.59-.9 1.55 1.55 0 011.08 0 10.58 10.58 0 011.85.81 19.65 19.65 0 001.81.82c2.48 1 5 1.78 7.51 2.74a29.12 29.12 0 013.68 1.58 32 32 0 013.34 2.07z" fill="#9a4a4d"/><path d="M409 160.43a17.52 17.52 0 002.77-1.47s-3.52.2-6.26.07-8.06-.13-8.06-.13zm-4.16 5.57a2.49 2.49 0 01-1.1-1.8c0 .09.53 1.05 2.57 1.36a8.38 8.38 0 003.95-.44s-1.67 1.21-2.93 1.93a10.57 10.57 0 01-2.49-1.05zm1.16 5.86a2.4 2.4 0 01-1.11-1.41c.55 1 1.49 1.15 3 1a16.69 16.69 0 004.05-1.28l-2.42 1.91s-2.52.33-3.52-.22z" fill="#9a4a4d"/><path d="M443.45 184.68a29.75 29.75 0 01-3.55-2.23c-3-2.06-4.69-4.91-6.2-8.15a6.35 6.35 0 00-1.06-1.75 3.4 3.4 0 00-2.95-.78c-1.7.14-3.37.72-5.05.85-1.23.1-2.55-.1-3.8-.09-2.4 0-3.27.29-4.53 1.39 1.14-.41 2.08-.72 5.55-.18 4.24.67 7.15-1.25 8.6.65 1.57 2.07 3.39 7.61 7.36 11.16s7.44 3.61 12.83 2.88c3.79-.51 5.89-1.68 6.49-3.49-2.39 2.86-9.77 1.74-13.69-.26z" fill="#9a4a4d" opacity=".5"/><path d="M412.39 152.83a9.37 9.37 0 01-5.76-4.72 6.5 6.5 0 00.54 1.39c1.25 2.38 5 4.9 5 4.9l4.64-.47s-1.61-.32-4.42-1.1zm2.47 10.17v-.27a3 3 0 011.12-1 2 2 0 01.8-.34 1.76 1.76 0 01.56 0 5.52 5.52 0 012 .62c.86.49 0 .71-.56.65a10.32 10.32 0 00-1.09-.11c-.51-.06-2.42.9-2.83.45zm1.86 4.46a1.45 1.45 0 01.14-.48 1.52 1.52 0 01.55-.52 2.72 2.72 0 011.47-.41 3.52 3.52 0 011 .22 4.52 4.52 0 01.47.18c.35.19 1.38 1 .35.83a7.44 7.44 0 00-3 .16 8.1 8.1 0 01-.8.24h-.11a.27.27 0 01-.07-.22zm-.03-9.41a2.46 2.46 0 00-.45.11 2.76 2.76 0 01-.92.26c-.09 0-.19 0-.22-.1s0-.18.09-.25a3.12 3.12 0 011.6-1.22 2.77 2.77 0 011 .08 2.92 2.92 0 011.27.56c.54.49-.17.53-.58.51a9.19 9.19 0 00-1.79.05z" fill="#9a4a4d"/><path d="M138.33 195.47l-4.56-8.57 3.67-10.58v-6.48l-11.22 6.48v6.48l4.82 8.35a.66.66 0 00.33.29z" fill="#ba68c8"/><path d="M138.33 195.47l-4.56-8.57 3.67-10.58v-6.48l-11.22 6.48v6.48l4.82 8.35a.66.66 0 00.33.29z" opacity=".2"/><path d="M165.12 114.42a7.44 7.44 0 00-3.36-5.82L159 107a7.39 7.39 0 00-6.73 0l-42 24.29a7.43 7.43 0 00-3.37 5.83v50.14a7.43 7.43 0 003.37 5.82l2.74 1.58a7.37 7.37 0 006.72 0l13.51-7.8 4.82 8.34a.72.72 0 001.3-.13l5.08-14.68 17.3-10a7.42 7.42 0 003.36-5.83z" fill="#ba68c8"/><path d="M106.92 187.28a7.43 7.43 0 003.37 5.82l2.74 1.58a7.48 7.48 0 006.15.27c-1.58.6-2.79-.29-2.79-2.21V142.6a6.94 6.94 0 011-3.31l-9.46-5.47a6.88 6.88 0 00-1 3.32z" opacity=".2"/><path d="M165 113.47c-.39-1.43-1.69-1.89-3.25-1l-42 24.3a6.69 6.69 0 00-2.37 2.51l-9.46-5.46a6.69 6.69 0 012.37-2.51l42-24.3a7.48 7.48 0 016.74 0l2.74 1.58a7.4 7.4 0 013.23 4.88z" fill="#fff" opacity=".3"/><path d="M133 142.74v22.07a2.63 2.63 0 00-1.25.36c-2.07 1.19-3.75 4.73-3.76 7.92s1.67 4.81 3.74 3.62 3.75-4.73 3.76-7.92l.05-19.78 12.93-12.62v19.59a2.63 2.63 0 00-1.25.36c-2.07 1.19-3.75 4.73-3.75 7.92s1.67 4.81 3.74 3.62 3.74-4.73 3.75-7.91l.05-32.71z" fill="#fafafa"/></svg>