<svg xmlns="http://www.w3.org/2000/svg" width="450.689" height="450.69" viewBox="0 0 450.689 450.69"><path d="M25.634 272.867c-6.45.104-11.945 2.751-15.96 8.562h-.213v-27.592H.156v75.903H8.93v-6.873h.21c1.903 3.065 5.814 8.456 15.223 8.456 18.815 0 24.314-17.653 24.314-30.863 0-15.541-8.351-27.593-23.043-27.593zm-1.481 50.425c-5.919 0-15.118-3.914-15.118-18.608 0-8.985 1.478-23.468 14.904-23.468 14.375 0 15.118 13.641 15.118 20.721.001 12.153-4.758 21.355-14.904 21.355zm73.256-3.175V288.3c0-14.161-16.068-15.434-20.506-15.434-13.637 0-22.41 5.18-22.833 18.395h8.563c.633-4.231 2.114-10.674 12.686-10.674 8.773 0 13.001 3.164 13.001 8.981 0 5.497-2.642 6.346-4.863 6.56l-15.33 1.896c-15.433 1.9-16.806 12.686-16.806 17.339 0 9.51 7.188 15.958 17.334 15.958 10.783 0 16.386-5.073 19.979-8.982.317 4.227 1.585 8.453 9.832 8.453 2.113 0 3.487-.632 5.075-1.054v-6.766c-1.061.215-2.222.42-3.067.42-1.9 0-3.065-.946-3.065-3.275zm-9.304-9.513c0 7.4-8.456 13-17.124 13-6.978 0-10.045-3.593-10.045-9.617 0-6.978 7.295-8.351 11.841-8.989 11.523-1.479 13.846-2.322 15.325-3.487v9.094h.003zm45.457-37.737c-9.514 0-14.695 6.448-16.701 9.404h-.213v-7.819h-8.773v55.286h9.301V299.61c0-15.012 9.304-18.391 14.59-18.391 9.091 0 11.84 4.863 11.84 14.48v34.038h9.301v-37.633c0-15.748-10.783-19.237-19.345-19.237zm64.378 9.404h-.21c-2.219-3.163-6.45-9.404-16.491-9.404-14.692 0-23.043 12.053-23.043 27.592 0 13.209 5.496 30.862 24.312 30.862 5.396 0 11.737-1.688 15.75-9.197h.216v7.614h8.769v-75.902h-9.299v28.436h-.004zm-15.223 41.021c-10.15 0-14.905-9.201-14.905-21.355 0-7.08.74-20.721 15.117-20.721 13.424 0 14.901 14.482 14.901 23.468.003 14.693-9.193 18.608-15.113 18.608zm57.822-42.073c7.824 0 11.948 4.438 13.106 11.837h8.988c-.742-9.617-6.241-20.194-20.722-20.194-18.285 0-26.531 13.641-26.531 30.763 0 15.963 9.196 27.694 24.733 27.694 16.178 0 21.567-12.368 22.52-21.141h-8.988c-1.585 8.455-6.976 13.109-13.212 13.109-12.79 0-15.116-11.736-15.116-21.251 0-9.827 3.701-20.817 15.222-20.817zm69.135 38.898V288.3c0-14.161-16.065-15.434-20.507-15.434-13.637 0-22.409 5.18-22.834 18.395h8.563c.634-4.231 2.116-10.674 12.688-10.674 8.772 0 13.002 3.164 13.002 8.981 0 5.497-2.646 6.346-4.863 6.56l-15.329 1.896c-15.434 1.9-16.807 12.686-16.807 17.339 0 9.51 7.183 15.958 17.336 15.958 10.78 0 16.385-5.073 19.979-8.982.315 4.227 1.581 8.453 9.832 8.453 2.109 0 3.487-.632 5.073-1.054v-6.766c-1.059.215-2.22.42-3.063.42-1.905 0-3.07-.946-3.07-3.275zm-9.303-9.513c0 7.4-8.458 13-17.121 13-6.985 0-10.046-3.593-10.046-9.617 0-6.978 7.292-8.351 11.839-8.989 11.523-1.479 13.848-2.322 15.328-3.487v9.093zm77.062-37.737c-8.563 0-12.266 3.805-16.909 8.987-1.59-2.961-4.759-8.987-14.695-8.987s-14.694 6.448-16.702 9.404h-.214v-7.819h-8.769v55.286h9.3V299.61c0-15.012 9.3-18.391 14.585-18.391 6.868 0 8.668 5.601 8.668 10.252v38.27h9.305v-33.722c0-7.404 5.181-14.8 13.002-14.8 7.925 0 10.252 5.179 10.252 12.79v35.731h9.3v-38.27c.001-15.54-11.202-18.603-17.123-18.603zm50.209 0c-10.037 0-14.262 6.241-16.488 9.404h-.214v-7.819h-8.773v77.166h9.305v-27.694h.212c2.435 3.91 7.295 7.397 14.692 7.397 18.821 0 24.314-17.653 24.314-30.862.001-15.54-8.352-27.592-23.048-27.592zm-1.472 50.425c-5.922 0-15.121-3.914-15.121-18.608 0-8.985 1.482-23.468 14.904-23.468 14.38 0 15.121 13.641 15.121 20.721-.002 12.153-4.762 21.355-14.904 21.355zM0 251.739h181.402l70.563-152.665H70.561z"/><path d="M301.692 136.215c-12.59.208-23.315 5.368-31.155 16.712h-.417V99.072h-18.157V247.22h17.131v-13.412h.41c3.714 5.982 11.349 16.503 29.709 16.503 36.729 0 47.457-34.453 47.457-60.241-.002-30.328-16.298-53.855-44.978-53.855zm-2.892 98.42c-11.549 0-29.501-7.639-29.501-36.313 0-17.539 2.883-45.805 29.09-45.805 28.06 0 29.504 26.619 29.504 40.442 0 23.718-9.285 41.676-29.093 41.676zm108.608-82.118c15.268 0 23.324 8.664 25.589 23.106h17.534c-1.443-18.771-12.171-39.41-40.44-39.41-35.692 0-51.78 26.619-51.78 60.04 0 31.16 17.949 54.058 48.276 54.058 31.567 0 42.095-24.138 43.944-41.262h-17.534c-3.098 16.503-13.615 25.586-25.785 25.586-24.964 0-29.508-22.905-29.508-41.473.002-19.192 7.224-40.645 29.704-40.645z"/></svg>