<svg version="1.0" id="katman_1" xmlns="http://www.w3.org/2000/svg" x="0" y="0" viewBox="0 0 600 450" xml:space="preserve"><style>.st0{fill:#e63722}</style><path class="st0" d="M122.2 171.6c.5.1.9.1 1.4.2 3.1.2 6.2.6 9.2 1.3 3.3.7 6.6 1.7 9.7 2.9 3.3 1.3 6.4 2.8 9.4 4.6 3.2 1.9 6.3 4.1 9.1 6.6 3.5 3.1 6.6 6.5 9.4 10.2 2 2.7 3.8 5.6 5.3 8.7 2.4 4.9 4.2 10 5.3 15.4.5 2.5.9 5.1 1 7.7 0 .9.1 1.8.1 2.7 0 .6.1 1.3.1 1.9-.1 3.5-.3 7-.9 10.5-.6 3.2-1.4 6.4-2.5 9.5-2.6 7.4-6.6 14.3-11.8 20.2-4.9 5.6-10.7 10.3-17.2 13.9-5.8 3.2-12 5.4-18.5 6.6-2.2.4-4.5.8-6.8.9-.6 0-1.3.1-1.9.1-.1 0-.3.1-.4.1h-5.9c-.1 0-.2-.1-.3-.1-2.4-.1-4.9-.4-7.3-.8-3.6-.6-7.2-1.5-10.7-2.7-5.5-1.9-10.7-4.6-15.4-7.9-3.8-2.7-7.3-5.8-10.4-9.2-2.3-2.5-4.3-5.2-6.1-8-2.6-4-4.7-8.4-6.3-12.9-1.3-3.7-2.3-7.4-2.8-11.3-.3-1.9-.4-3.8-.6-5.7 0-.2-.1-.3-.1-.5v-5.7c0-.1.1-.3.1-.4.1-1.3.2-2.6.4-3.9.3-3.2 1-6.3 1.8-9.3 1-3.5 2.2-6.9 3.8-10.1 1.5-3.1 3.2-6 5.1-8.8 1.9-2.8 4.1-5.4 6.5-7.8 2.5-2.6 5.3-5 8.3-7.1 3.5-2.5 7.3-4.7 11.3-6.4 3.7-1.6 7.6-2.9 11.5-3.8 3.2-.7 6.5-1.2 9.8-1.4.5 0 .9-.1 1.4-.2h5.9zm54.2 67c.1-20.1-6.1-34-15.7-43.9-11-11.2-24.5-17.2-40.3-17.5-15.7-.3-29.4 4.9-40.7 15.7-11.4 10.8-17.3 24-17.7 39.6-.3 15.5 5 29 15.9 40.1 10.9 11.2 24.4 17.1 40.2 17.4 15.6.3 29.3-4.9 40.6-15.6 11.8-11.1 17.5-24.8 17.7-35.8zm367.5 20.3c0 .2-.1.4-.1.6-.1 1.7-.5 3.3-1.2 4.8-1.3 2.9-3.6 4.6-6.6 5.5-1.7.5-3.5.7-5.2.7H525c-1.6 0-3.3-.2-4.9-.6-4.1-1.1-6.6-3.7-7.6-7.7-.4-1.6-.6-3.3-.6-4.9V242h10.9v14.8c0 .4 0 .8.1 1.3.3 1.7 1.3 2.7 3.1 2.9 1.2.1 2.4.1 3.6 0 1.9-.2 3-1.4 3.2-3.2v-10.6c0-.5 0-1-.1-1.5-.2-1.4-.7-2.6-1.8-3.6l-1.5-1.2c-3.8-2.7-7.6-5.5-11.4-8.2-1.1-.8-2.2-1.7-3.1-2.7-1.7-1.9-2.6-4.1-2.9-6.5-.1-1.1-.2-2.2-.2-3.3v-9.7c0-1.6.1-3.3.6-4.9 1.1-4.4 4-7.1 8.5-8.1 1.5-.3 3-.5 4.4-.5 2.2 0 4.5 0 6.7.1 1.4 0 2.8.3 4.2.8 3.6 1.2 5.9 3.8 6.9 7.4.4 1.5.6 3.1.6 4.6v13.5c-.5.1-10.1.2-11 .1v-12.4c0-.4 0-.8-.1-1.3-.2-1.6-1.1-2.7-2.8-3-1.3-.2-2.7-.2-4.1 0-1.6.3-2.6 1.3-2.8 3 0 .4-.1.8-.1 1.1v7.9c0 .5 0 1 .1 1.6.2 1.3.9 2.6 1.9 3.5l1.2.9c3.8 2.7 7.6 5.5 11.4 8.2 1 .7 1.9 1.5 2.7 2.3 2.2 2.1 3.3 4.7 3.4 7.7 0 .2.1.4.1.5v15.4zM500.5 270h-11.2v-25.2c-.2-2.3-1.5-3.6-3.9-3.7-1.1-.1-2.3 0-3.4 0h-2.4c-.1 1.6 0 3.3 0 4.9v24.1h-11.2v-72.2h18.9c1.7 0 3.4.2 5 .7 4 1.2 6.5 3.8 7.6 7.7.4 1.6.6 3.2.6 4.8v14.1c0 1.7-.2 3.4-.7 5-.8 2.5-2.4 4.4-4.8 5.6-.2.1-.5.2-.8.4l.9.3c1.1.4 2.1.9 3 1.8 1.2 1.1 1.8 2.5 2.1 4.1.2 1.1.3 2.2.3 3.4V270zm-20.9-62.5v23.8c.1 0 .1 0 .2.1h5.6c2-.1 3.3-1.3 3.6-3.1.1-.5.1-1 .1-1.4V212c0-.5 0-.9-.1-1.4-.3-1.6-1.3-2.6-2.9-2.8-.4-.1-.9-.1-1.3-.1h-4.7c-.1-.2-.3-.2-.5-.2zm-132 34.5h10.8v14.3c0 .5 0 1 .1 1.5.2 1.8 1.3 2.9 3.1 3.1 1.2.1 2.4.1 3.6 0 1.8-.2 2.8-1.2 3.1-3 .1-.4.1-.8.1-1.2V247c0-.5 0-1.1-.1-1.6-.2-1.2-.7-2.2-1.5-3-.5-.5-1.1-1-1.6-1.4-3.8-2.7-7.6-5.4-11.3-8.2-1-.7-2-1.5-2.9-2.4-2-2-3.1-4.5-3.3-7.3-.1-1-.1-2-.1-3v-9.8c0-1.6.2-3.3.6-4.9 1.1-4.1 3.8-6.6 7.9-7.7 1.6-.4 3.3-.6 4.9-.6 2.3 0 4.5 0 6.8.1 1.4 0 2.8.3 4.2.8 3.5 1.2 5.8 3.6 6.8 7.1.4 1.5.7 3.1.7 4.7v13.7h-11v-12.6c0-.5 0-.9-.1-1.4-.3-1.5-1.1-2.4-2.7-2.7-1.3-.2-2.6-.3-3.9 0-1.9.3-2.9 1.4-3 3.3-.1 3.2-.1 6.5 0 9.7.1 2 1.1 3.5 2.7 4.7l5.4 3.9 6.4 4.6c1.2.9 2.3 1.8 3.3 2.9 1.6 1.7 2.6 3.9 2.9 6.2.1 1.2.2 2.3.2 3.5v12c0 1.6-.2 3.2-.6 4.7-1.1 4.3-4 6.9-8.3 7.9-1.5.3-2.9.5-4.4.5h-5.6c-1.7 0-3.4-.2-5-.6-4.1-1.1-6.7-3.8-7.7-7.9-.3-1.4-.5-2.9-.5-4.3V242zm110.9 28h-11.1c-.5-3.7-1-7.5-1.5-11.3h-11.6c-.5 3.7-.9 7.5-1.4 11.2-.5.1-9.4.2-10.4 0 1.1-8 2.3-16.1 3.5-24.1 1.2-8 2.3-16 3.5-24.1 1.2-8 2.3-16.1 3.5-24.2h14.9c3.5 24.2 7 48.3 10.6 72.5zm-13.9-21.2c-1.5-11.9-3-23.7-4.4-35.6h-.1c-1.5 11.8-3 23.7-4.5 35.6h9zM196 270v-72.3c.2 0 .3 0 .5-.1h15.3c1.7 0 3.4.2 5 .7 4 1.1 6.4 3.7 7.5 7.6.4 1.5.6 3.1.6 4.7v11.5c0 1.7-.2 3.5-.8 5.2-.8 2.5-2.5 4.3-4.9 5.4-.2.1-.3.2-.6.3.2.1.3.2.4.2 3.3 1.4 5.1 4 5.7 7.4.2 1.1.3 2.2.3 3.4v12.9c0 2.1-.3 4.2-1.1 6.2-1.3 3.3-3.8 5.3-7.3 6.2-1.6.4-3.2.6-4.9.6h-15.4c0 .1-.1.1-.3.1zm8.3-7.5h6.7c.6 0 1.1 0 1.7-.1 2.2-.3 3.5-1.5 3.9-3.6.1-.6.2-1.2.2-1.9v-14c0-.9-.1-1.8-.3-2.7-.5-1.6-1.5-2.7-3.2-3.2-.8-.2-1.6-.3-2.4-.4h-6.1c-.2 0-.3 0-.5.1v25.8zm0-33.1h6c.6 0 1.2 0 1.8-.1 2.4-.3 3.9-1.6 4.4-3.9.1-.7.2-1.5.2-2.2v-12.3c0-.6 0-1.2-.1-1.8-.3-2-1.5-3.3-3.5-3.7-.6-.1-1.2-.2-1.8-.2h-6.8v24.2zm77.7-31.9h10.7l11.3 72.4c-.5.1-7.2.2-8.3.1l-1.8-12h-13.5c-.6 4-1.1 8-1.7 12h-8c0-.6 10.7-69.9 11.3-72.5zm10.9 52.9c-1.9-13.2-3.7-26.3-5.6-39.4h-.1c-1.9 13.1-3.8 26.2-5.7 39.4h11.4zm126.2-52.7v10h-10V270h-11.2v-62.2H388c-.2-.5-.2-9.2-.1-10l31.2-.1zm-158.1 0v7.6h-14.5c-.2.5-.2 23-.1 24h13.9c.1.5.2 6.5.1 7.5h-14v25.4H261c.1.4.2 6.2.1 7.5-.4.1-22.3.2-23.2 0v-72.2H261zm66.3 72.3h-8.4v-64.6c-.8-.1-1.5 0-2.2 0H308c-.2-.5-.2-7 0-7.6h30.3v7.6h-10.9c-.1 1.8 0 3.6 0 5.4v5.4l-.1 53.8z"/><path class="st0" d="M144.1 233.6l3.2 3.1 1.4 1.4c.3.3.4.6.4 1v18.4c0 .4-.1.7-.4 1-1.4 1.3-2.8 2.7-4.1 4.1-.3.3-.5.4-.9.4h-54v-58.6h53.8c.5 0 .8.1 1.2.5l4.1 4.1c.1.1.2.2.3.4.1.1.1.3.1.5v18.7c0 .3-.1.6-.4.8-1.4 1.3-2.7 2.6-4 4-.3-.2-.5 0-.7.2zm-7.5 19.5c0-.1 0-.2.1-.2v-11.6c0-.3-.1-.4-.3-.6-.6-.6-1.2-1.1-1.8-1.7-.3-.3-.5-.4-.9-.4h-7.9c.1.3.1.5.2.8.9 2.6 1.8 5.3 2.7 7.9 0 .1.1.3.1.5l-10.2-6.3-10.2 6.3-.1-.1c1.3-3.8 2.5-7.5 3.8-11.3l-10.1-7.5v24.2h34.6zM102 228.7h12.1c.6 0 .6 0 .8-.6 1.1-3.4 2.3-6.8 3.4-10.2.1-.2.1-.4.3-.7 1.3 3.9 2.6 7.7 3.9 11.4h11.4c.3 0 .5-.1.7-.3l1.8-1.8c.1-.1.2-.2.3-.4.1-.2.1-.3.1-.5V214c-.1 0-.1-.1-.2-.1h-34.3l-.1.1-.2 14.7z"/></svg>